<?xml version="1.0" encoding="UTF-8"?>
<svg version="1.1" xmlns="http://www.w3.org/2000/svg" width="866" height="312">

<path d="M0 0 C12.2068618 -0.5000949 23.18177158 3.68938083 33.84765625 9.1640625 C34.17765625 6.8540625 34.50765625 4.5440625 34.84765625 2.1640625 C42.76765625 2.1640625 50.68765625 2.1640625 58.84765625 2.1640625 C58.84765625 37.8040625 58.84765625 73.4440625 58.84765625 110.1640625 C50.92765625 110.1640625 43.00765625 110.1640625 34.84765625 110.1640625 C34.35265625 106.6990625 34.35265625 106.6990625 33.84765625 103.1640625 C33.0484375 103.56238281 32.24921875 103.96070313 31.42578125 104.37109375 C16.16128611 111.73460021 1.51486511 114.66802581 -15.15234375 110.1640625 C-30.40791217 104.7812034 -41.0980999 95.04622333 -48.40625 80.703125 C-54.32465004 67.90540389 -55.82189814 52.07598475 -51.52734375 38.4765625 C-50.79138692 36.68186076 -49.99982334 34.90887342 -49.15234375 33.1640625 C-48.70503906 32.21402344 -48.25773438 31.26398438 -47.796875 30.28515625 C-40.52654815 15.95890898 -29.74628477 7.99487126 -15.15234375 1.9140625 C-10.14264509 0.66163784 -5.1321821 0.39120081 0 0 Z " fill="#D78141" transform="translate(593.15234375,105.8359375)"/>
<path d="M0 0 C9.77875919 8.44712623 18.46739875 20.61797836 20.03173828 33.78125 C21.14703475 50.00374409 17.74906229 65.52704931 7.21484375 78.328125 C-3.27888156 89.29974292 -17.99975868 97.53505835 -33.44140625 97.87890625 C-54.92671994 98.25972379 -54.92671994 98.25972379 -64.22265625 93.640625 C-65.1353125 93.228125 -66.04796875 92.815625 -66.98828125 92.390625 C-81.51530909 85.24884595 -91.88313109 72.855401 -97.22265625 57.640625 C-100.57808526 42.8637126 -99.42653545 27.54346984 -91.35546875 14.66015625 C-89.42173475 11.8724191 -87.39281077 9.24732898 -85.22265625 6.640625 C-84.69027344 5.99480469 -84.15789062 5.34898438 -83.609375 4.68359375 C-61.58449122 -19.52738272 -24.85135024 -18.19420066 0 0 Z " fill="#FCFBF7" transform="translate(320.22265625,107.359375)"/>
<path d="M0 0 C2.13317572 8.24902109 4.01368524 16.52109674 5.6875 24.875 C5.91244141 25.96296875 6.13738281 27.0509375 6.36914062 28.171875 C6.58119141 29.22632812 6.79324219 30.28078125 7.01171875 31.3671875 C7.20209717 32.30675293 7.39247559 33.24631836 7.58862305 34.21435547 C8.02659854 37.18011234 8.0698311 40.00637111 8 43 C6.125 43.625 6.125 43.625 4 44 C1.39828419 41.39828419 1.37702764 39.61191923 0.74609375 36.00390625 C0.53146484 34.80572266 0.31683594 33.60753906 0.09570312 32.37304688 C-0.12150391 31.11556641 -0.33871094 29.85808594 -0.5625 28.5625 C-0.99952582 26.08432152 -1.43824845 23.60644149 -1.87890625 21.12890625 C-2.0704126 20.02619385 -2.26191895 18.92348145 -2.45922852 17.78735352 C-2.95073438 14.93153799 -2.95073438 14.93153799 -4 12 C-4.727756 13.49780127 -5.45550513 14.99560587 -6.18322754 16.49342346 C-6.84522214 17.85593765 -7.50725145 19.21843498 -8.16931152 20.58091736 C-10.04637573 24.44414677 -11.92245164 28.30785179 -13.796875 32.17236328 C-17.35785998 39.51244358 -20.92219083 46.85066602 -24.51696777 54.17427063 C-25.99515142 57.18676471 -27.46910639 60.2013178 -28.94262695 63.21609497 C-29.64481323 64.64979283 -30.34906284 66.08248206 -31.05541992 67.51412964 C-32.04222087 69.51469698 -33.02183727 71.51863572 -34 73.5234375 C-34.556875 74.65700684 -35.11375 75.79057617 -35.6875 76.95849609 C-36.86560416 79.68855964 -37.563232 82.07160705 -38 85 C-37.27554688 85.24878906 -36.55109375 85.49757813 -35.8046875 85.75390625 C-25.79459834 90.2012857 -18.93372458 100.20234549 -14.71875 109.96875 C-10.61879354 120.86292003 -11 128.37457529 -11 141 C-29.48 141.33 -47.96 141.66 -67 142 C-73.79711322 153.09395903 -73.79711322 153.09395903 -77 165 C-66.85918992 169.39369721 -58.09733271 170.62097241 -47.48828125 167.05078125 C-41.16801014 164.38178136 -35.71963034 160.98901564 -31 156 C-26.64352355 157.44950405 -23.68242711 159.67747112 -20.1875 162.625 C-19.21167969 163.44226563 -18.23585938 164.25953125 -17.23046875 165.1015625 C-16.49441406 165.72804687 -15.75835938 166.35453125 -15 167 C-19.29082789 176.44807295 -28.43077734 181.10828824 -37.25 185.6875 C-54.39228291 191.68729902 -72.0993179 192.10631971 -89 185 C-89.10779785 185.70527832 -89.2155957 186.41055664 -89.32666016 187.13720703 C-90.08038684 190.34177523 -91.27557626 192.87363788 -92.7734375 195.8046875 C-93.34602295 196.93503418 -93.9186084 198.06538086 -94.50854492 199.22998047 C-94.81311615 199.82470154 -95.11768738 200.41942261 -95.43148804 201.03216553 C-97.03336026 204.16088617 -98.61555421 207.29953469 -100.19921875 210.4375 C-100.51971695 211.07146698 -100.84021515 211.70543396 -101.17042542 212.35861206 C-105.57949369 221.0999684 -109.75142103 229.95458034 -113.94677734 238.79980469 C-115.26383485 241.5511543 -116.62152562 244.2789724 -118 247 C-119.65 246.67 -121.3 246.34 -123 246 C-122.36717894 241.03090944 -120.22361242 236.98894362 -118.01953125 232.5625 C-117.41183144 231.32420692 -117.41183144 231.32420692 -116.79185486 230.06089783 C-115.47064182 227.37131867 -114.14154893 224.68571438 -112.8125 222 C-111.90396141 220.15340123 -110.99608737 218.30647536 -110.08886719 216.45922852 C-108.71706296 213.66615222 -107.34488173 210.87327005 -105.97055054 208.08143616 C-101.85519866 199.72017496 -97.79268431 191.33408478 -93.75 182.9375 C-93.15475268 181.70245039 -92.55945809 180.46742355 -91.96411133 179.23242188 C-90.64192254 176.48867396 -89.32048425 173.74456854 -88 171 C-91.36487531 168.29635197 -91.36487531 168.29635197 -94.7734375 165.6484375 C-104.97175183 157.53953391 -111.77261033 144.76375555 -114 132 C-115.63489422 113.43988592 -112.73958618 98.32061846 -100.625 83.75 C-89.80146189 71.97910625 -75.96900271 66.60024837 -60.21484375 65.87109375 C-54.72972652 65.76269222 -49.52809488 66.13516112 -44.109375 67.01171875 C-42.38412598 67.28761841 -42.38412598 67.28761841 -40.62402344 67.5690918 C-39.32513184 67.78239136 -39.32513184 67.78239136 -38 68 C-37.64921387 67.27337158 -37.29842773 66.54674316 -36.93701172 65.7980957 C-27.95800781 47.19873047 -18.97900391 28.59936523 -10 10 C-13.02308827 11.41188933 -16.04303358 12.83038351 -19.0625 14.25 C-19.91005859 14.64574219 -20.75761719 15.04148437 -21.63085938 15.44921875 C-25.49679412 17.27023821 -29.27121071 19.113401 -32.9375 21.3125 C-36 23 -36 23 -38.9375 22.75 C-39.618125 22.5025 -40.29875 22.255 -41 22 C-40.63834458 19.52402635 -40.43067151 18.33339961 -38.41210938 16.77075195 C-37.72955078 16.43003662 -37.04699219 16.08932129 -36.34375 15.73828125 C-35.57619385 15.34552002 -34.8086377 14.95275879 -34.01782227 14.5480957 C-33.18694092 14.14034912 -32.35605957 13.73260254 -31.5 13.3125 C-29.76907875 12.43839547 -28.0386198 11.56337497 -26.30859375 10.6875 C-25.42671387 10.24535156 -24.54483398 9.80320312 -23.63623047 9.34765625 C-21.09508844 8.04860976 -18.59358043 6.69613771 -16.09765625 5.3125 C-15.33324219 4.89186279 -14.56882812 4.47122559 -13.78125 4.0378418 C-12.32748857 3.23497773 -10.87805998 2.42420587 -9.43359375 1.60473633 C-5.80569228 -0.37149186 -3.94356011 -1.31452004 0 0 Z " fill="#FAF9F5" transform="translate(545,28)"/>
<path d="M0 0 C2.43723804 1.80518417 4.58311207 3.75541159 6.6875 5.9375 C9.50063191 4.97299763 11.57223882 4.03300212 13.875 2.125 C25.69240472 -7.06631479 39.25364289 -8.30690294 53.6875 -7.0625 C65.73547254 -4.79738321 74.8029356 0.51642893 82.3125 10.1875 C90.63679155 22.39994027 89.99386137 39.45488615 89.8828125 53.62109375 C89.87906818 55.0569692 89.87622795 56.49284725 89.87423706 57.9287262 C89.86671196 61.65222615 89.84716368 65.3755624 89.8248291 69.09899902 C89.80412643 72.92079455 89.79518392 76.74261732 89.78515625 80.56445312 C89.76390348 88.02221761 89.72881682 95.47981473 89.6875 102.9375 C81.7675 102.9375 73.8475 102.9375 65.6875 102.9375 C65.6781543 100.92994629 65.66880859 98.92239258 65.65917969 96.85400391 C65.62526863 90.18826084 65.56964224 83.52282276 65.50359726 76.8573246 C65.46424722 72.8197439 65.43199819 68.78237722 65.41650391 64.74462891 C65.40125429 60.84101806 65.36666429 56.93799609 65.31919098 53.0346489 C65.30446208 51.55252606 65.29646391 50.0703191 65.29561615 48.58812332 C65.28383472 38.30937711 64.10154902 30.35981315 58.5625 21.5625 C51.66226631 15.26228663 44.14657224 14.3203393 35.0234375 14.6171875 C27.74225857 15.31631709 20.92401326 17.62192181 15.6875 22.9375 C14.9933404 25.93782421 14.7898593 27.86196225 14.89282227 30.84887695 C14.89128899 32.02040062 14.89128899 32.02040062 14.88972473 33.21559143 C14.89458668 35.78705906 14.94895246 38.35493739 15.00390625 40.92578125 C15.01696763 42.71223511 15.02692926 44.4987141 15.03392029 46.28520203 C15.06060384 50.97943775 15.1293276 55.67214894 15.20684814 60.36578369 C15.27855169 65.15835954 15.3104469 69.9511826 15.34570312 74.74414062 C15.42070007 84.14270352 15.54379365 93.53973628 15.6875 102.9375 C8.0975 102.9375 0.5075 102.9375 -7.3125 102.9375 C-7.32708252 100.96023926 -7.34166504 98.98297852 -7.35668945 96.94580078 C-7.40853862 90.37987335 -7.47387672 83.8141859 -7.54821491 77.24847603 C-7.59275776 73.27146596 -7.6320482 69.29455454 -7.65893555 65.31738281 C-7.6851305 61.4722035 -7.72564415 57.62740715 -7.77568626 53.78246689 C-7.79224641 52.32266921 -7.80382774 50.86280547 -7.81011391 49.4029274 C-7.8610055 38.66092122 -7.99825952 28.51095843 -15.765625 20.33984375 C-22.13860904 14.56231529 -29.06378823 14.42244841 -37.3359375 14.5859375 C-45.11280968 15.27348023 -52.75509916 18.3584681 -58.3125 23.9375 C-58.82116163 26.70678149 -59.00490191 28.87426172 -58.97192383 31.64355469 C-58.98764938 32.80022896 -58.98764938 32.80022896 -59.00369263 33.98027039 C-59.03244577 36.52371444 -59.02615127 39.06579752 -59.01953125 41.609375 C-59.03264622 43.37487494 -59.04794982 45.14035988 -59.06535339 46.90582275 C-59.10524021 51.54848122 -59.11539618 56.19074752 -59.11938477 60.83355713 C-59.1287093 65.57275314 -59.16611855 70.31171806 -59.20117188 75.05078125 C-59.2657855 84.34639768 -59.29639868 93.6416728 -59.3125 102.9375 C-67.2325 102.9375 -75.1525 102.9375 -83.3125 102.9375 C-83.3125 67.2975 -83.3125 31.6575 -83.3125 -5.0625 C-75.3925 -5.0625 -67.4725 -5.0625 -59.3125 -5.0625 C-58.9825 -2.7525 -58.6525 -0.4425 -58.3125 1.9375 C-57.29542969 1.34001953 -57.29542969 1.34001953 -56.2578125 0.73046875 C-39.17781794 -8.99235364 -17.28358401 -11.21475273 0 0 Z " fill="#FEFDF9" transform="translate(125.3125,101.0625)"/>
<path d="M0 0 C-1.8331267 5.99932374 -4.07321751 11.44920563 -7 17 C-8.01578125 16.73445313 -9.0315625 16.46890625 -10.078125 16.1953125 C-33.34544887 9.61051336 -33.34544887 9.61051336 -56.328125 13.83203125 C-58.30407501 15.06132485 -58.30407501 15.06132485 -60 18 C-60.44168875 21.97519875 -60.42963703 24.24383882 -58.4375 27.75 C-52.55835989 33.17689856 -44.44501896 34.18425723 -36.875 35.875 C-6.47798951 42.95183144 -6.47798951 42.95183144 2.90625 56.16796875 C5.32731125 60.22324635 5.18333221 64.18210659 5.1875 68.75 C5.19974609 69.4409375 5.21199219 70.131875 5.22460938 70.84375 C5.25057945 80.05447098 2.33332115 86.39347676 -4 93 C-17.90597833 104.01571616 -35.10534357 104.12246824 -52 103 C-62.33280389 101.75116774 -73.81032732 98.96024634 -83 94 C-84 91 -84 91 -82.34765625 87.42578125 C-81.59612277 86.04907832 -80.8339433 84.67814591 -80.0625 83.3125 C-79.67642578 82.61060547 -79.29035156 81.90871094 -78.89257812 81.18554688 C-77.93738227 79.45204328 -76.96984614 77.72534991 -76 76 C-70.83654469 76.88573892 -65.93673127 78.56070874 -60.97070312 80.18359375 C-53.67437648 82.52118466 -46.82566564 83.22693429 -39.1875 83.3125 C-38.33607422 83.34150391 -37.48464844 83.37050781 -36.60742188 83.40039062 C-30.35528362 83.46229298 -25.38651163 82.2578888 -20 79 C-17.59195987 76.2271053 -17.08908443 74.61086464 -16.5625 71 C-17.12950881 67.11193962 -18.23226091 65.78949805 -21 63 C-23.63133991 61.64210322 -26.3577142 60.79061266 -29.1875 59.9375 C-29.97906494 59.68492432 -30.77062988 59.43234863 -31.58618164 59.17211914 C-37.68078409 57.27522779 -43.84070326 55.83836384 -50.0703125 54.46850586 C-62.17222474 51.70704357 -72.64308412 46.18212327 -80 36 C-83.56845264 29.10020121 -83.21369536 19.36930331 -81.16015625 11.9765625 C-77.03671382 2.95219354 -69.89053119 -2.24125829 -60.9140625 -6 C-42.5466045 -12.30304189 -16.96011272 -9.62600992 0 0 Z " fill="#D78142" transform="translate(745,115)"/>
<path d="M0 0 C7.92 0 15.84 0 24 0 C24 8.91 24 17.82 24 27 C34.89 27 45.78 27 57 27 C57 33.27 57 39.54 57 46 C46.11 46 35.22 46 24 46 C24.07426546 53.34715889 24.15734155 60.69315997 24.26245117 68.03979492 C24.29555497 70.53517508 24.3236314 73.03062751 24.34643555 75.52612305 C24.38024964 79.12840356 24.43257932 82.73003047 24.48828125 86.33203125 C24.49467117 87.43456741 24.5010611 88.53710358 24.50764465 89.67304993 C24.74335792 102.30090691 24.74335792 102.30090691 30.5 113.125 C33.95468816 115.71601612 36.47207283 116.1243817 40.66796875 116.09765625 C41.56064453 116.09443359 42.45332031 116.09121094 43.37304688 116.08789062 C44.30181641 116.07951172 45.23058594 116.07113281 46.1875 116.0625 C47.12787109 116.05798828 48.06824219 116.05347656 49.03710938 116.04882812 C51.35813712 116.03704626 53.67903644 116.02059558 56 116 C56.08071788 118.79224073 56.14035408 121.58216566 56.1875 124.375 C56.21263672 125.1690625 56.23777344 125.963125 56.26367188 126.78125 C56.29004405 128.85586148 56.15486462 130.93100865 56 133 C47.79453335 138.4703111 34.50015612 137.81460136 25 137 C16.71857515 135.29095249 10.40383752 130.35469682 5 124 C-0.06422658 114.77943617 -0.68875042 105.82123312 -0.48828125 95.51171875 C-0.47892629 94.07299545 -0.47182292 92.63425595 -0.46684265 91.19551086 C-0.44798282 87.45514968 -0.39907272 83.71579893 -0.34332275 79.97583008 C-0.29166837 76.14092672 -0.26923132 72.30585598 -0.24414062 68.47070312 C-0.19092541 60.97996029 -0.10317151 53.49025188 0 46 C-5.61 46 -11.22 46 -17 46 C-17 39.73 -17 33.46 -17 27 C-11.39 27 -5.78 27 0 27 C0 18.09 0 9.18 0 0 Z " fill="#D78142" transform="translate(767,81)"/>
<path d="M0 0 C8.25 0 16.5 0 25 0 C32.23139765 13.33288942 38.80767824 26.89271818 45.20117188 40.64013672 C49.32632137 49.50211554 53.57568357 58.28288461 58 67 C60.36306201 64.05843082 61.9847325 61.14824025 63.5390625 57.71484375 C64.02930908 56.64266602 64.51955566 55.57048828 65.0246582 54.46582031 C65.552771 53.30147461 66.08088379 52.13712891 66.625 50.9375 C72.02700084 39.12920738 77.62340671 27.422481 83.3125 15.75 C83.88825775 14.56819656 83.88825775 14.56819656 84.47564697 13.36251831 C86.64710317 8.90670696 88.82298434 4.4531051 91 0 C99.25 0 107.5 0 116 0 C114.72059109 3.83822673 113.57378256 7.11486787 111.84765625 10.68359375 C111.19240967 12.04436035 111.19240967 12.04436035 110.52392578 13.43261719 C109.80052002 14.92003418 109.80052002 14.92003418 109.0625 16.4375 C108.54671387 17.50516602 108.03092773 18.57283203 107.49951172 19.67285156 C105.67159675 23.45114072 103.83688896 27.22606828 102 31 C101.64431946 31.73091858 101.28863892 32.46183716 100.92218018 33.21490479 C97.3396196 40.57607675 93.75469639 47.93609437 90.16381836 55.29321289 C86.37184268 63.06420263 82.58764377 70.83852348 78.84375 78.6328125 C78.52312592 79.29978149 78.20250183 79.96675049 77.87216187 80.65393066 C76.39503662 83.72754193 74.92090296 86.80249009 73.45166016 89.87988281 C70.4927954 96.04441461 67.38876289 102.06028644 64 108 C60.04 108 56.08 108 52 108 C24.11932906 51.2606648 24.11932906 51.2606648 13.5234375 29.171875 C12.14789459 26.30792413 10.76813196 23.44604619 9.38626099 20.58514404 C7.9643356 17.64082184 6.54489233 14.69530305 5.125 11.75 C4.60566895 10.67588867 4.08633789 9.60177734 3.55126953 8.49511719 C2.8491333 7.0357373 2.8491333 7.0357373 2.1328125 5.546875 C1.71918457 4.68932617 1.30555664 3.83177734 0.87939453 2.94824219 C0 1 0 1 0 0 Z " fill="#FDFCF8" transform="translate(327,96)"/>
<path d="M0 0 C7.95346345 4.66897762 14.64389405 11.45387123 17.78125 20.28125 C20.31769696 31.0611496 18.33695169 41.27658992 12.921875 50.86328125 C7.06163492 58.39436546 0.17358009 62.61493513 -9.078125 64.86328125 C-11.75347643 65.07136414 -14.28418157 65.19827957 -16.953125 65.17578125 C-17.65566406 65.1701416 -18.35820312 65.16450195 -19.08203125 65.15869141 C-30.56195921 64.89079105 -37.88656776 60.30992621 -45.828125 52.30078125 C-50.79745021 46.37625393 -53.19161625 38.30471514 -53.453125 30.61328125 C-52.48937019 20.97573314 -50.17308152 12.64428798 -42.859375 5.78125 C-40.6546223 4.03582078 -38.4185809 2.42068499 -36.078125 0.86328125 C-35.19125 0.26515625 -34.304375 -0.33296875 -33.390625 -0.94921875 C-22.71895688 -6.42926454 -10.33254792 -5.65182603 0 0 Z " fill="#020202" transform="translate(298.078125,119.13671875)"/>
<path d="M0 0 C0.42132568 2.09832764 0.42132568 2.09832764 0.48339844 4.72167969 C0.52663239 6.19396027 0.52663239 6.19396027 0.57073975 7.69598389 C0.58348938 8.76052795 0.59623901 9.82507202 0.609375 10.921875 C0.62647522 12.01461731 0.64357544 13.10735962 0.66119385 14.23321533 C0.68957278 16.54991925 0.70915737 18.86674479 0.72070312 21.18359375 C0.74978246 24.72351792 0.84276646 28.25818261 0.9375 31.796875 C0.95709491 34.04684393 0.97284447 36.29685029 0.984375 38.546875 C1.02141541 39.60332214 1.05845581 40.65976929 1.09661865 41.74822998 C1.03141105 48.94834529 1.03141105 48.94834529 -1.95291138 51.99124146 C-12.96644302 59.48591003 -25.1028349 61.31289385 -38.0625 59.375 C-47.3538759 57.25125694 -54.57004492 51.71169152 -60 44 C-65.20660108 35.26941893 -65.73921327 27.03664209 -65 17 C-64.14570675 13.62188041 -62.8600157 10.93443471 -61 8 C-60.56429687 7.30390625 -60.12859375 6.6078125 -59.6796875 5.890625 C-53.38986444 -3.25195934 -45.58794567 -7.26109578 -35 -9.6875 C-21.55033756 -11.0885065 -11.14571576 -7.43047718 0 0 Z " fill="#010202" transform="translate(628,137)"/>
<path d="M0 0 C0.33 0.99 0.66 1.98 1 3 C2.65680412 3.69081279 4.32539391 4.35353526 6 5 C18.28370649 13.98566954 25.05194154 26.25970768 28 41 C28 46.94 28 52.88 28 59 C9.52 59 -8.96 59 -28 59 C-25.58024675 52.95061688 -23.24078113 47.21265401 -20.28125 41.46875 C-19.57852517 40.0837906 -18.8767356 38.69835632 -18.17578125 37.3125 C-17.81758301 36.60544922 -17.45938477 35.89839844 -17.09033203 35.16992188 C-15.26467626 31.53659709 -13.49078016 27.8784569 -11.71875 24.21875 C-11.37013916 23.49921143 -11.02152832 22.77967285 -10.66235352 22.03833008 C-9.60743466 19.85927326 -8.55368519 17.67965358 -7.5 15.5 C-6.76571899 13.98302742 -6.03134435 12.46610016 -5.296875 10.94921875 C-3.53017713 7.29999733 -1.76472306 3.6501768 0 0 Z " fill="#D68143" transform="translate(506,110)"/>
<path d="M0 0 C4.35647645 1.44950405 7.31757289 3.67747112 10.8125 6.625 C11.78832031 7.44226563 12.76414062 8.25953125 13.76953125 9.1015625 C14.50558594 9.72804687 15.24164062 10.35453125 16 11 C11.70917211 20.44807295 2.56922266 25.10828824 -6.25 29.6875 C-21.6116928 35.06409248 -40.14892923 37.00000324 -55.359375 29.8984375 C-55.90078125 29.60195312 -56.4421875 29.30546875 -57 29 C-55.50640515 24.15713185 -53.54966433 19.68649104 -51.375 15.125 C-51.05015625 14.43664062 -50.7253125 13.74828125 -50.390625 13.0390625 C-49.59676528 11.35794781 -48.79880442 9.67877079 -48 8 C-47.39671875 8.27714844 -46.7934375 8.55429688 -46.171875 8.83984375 C-45.37265625 9.20207031 -44.5734375 9.56429687 -43.75 9.9375 C-42.96109375 10.29714844 -42.1721875 10.65679687 -41.359375 11.02734375 C-33.34663984 14.33060708 -24.60716902 13.78297474 -16.48828125 11.05078125 C-10.16801014 8.38178136 -4.71963034 4.98901564 0 0 Z " fill="#D78143" transform="translate(514,184)"/>
<path d="M0 0 C-1.2436238 2.85698583 -2.49606731 5.71002546 -3.75 8.5625 C-4.09804688 9.36236328 -4.44609375 10.16222656 -4.8046875 10.98632812 C-5.32675781 12.1706543 -5.32675781 12.1706543 -5.859375 13.37890625 C-6.17358398 14.0963501 -6.48779297 14.81379395 -6.81152344 15.55297852 C-8.38109999 18.78466829 -10.21752881 21.88067543 -12 25 C-22.23 25 -32.46 25 -43 25 C-41.48913891 15.93483348 -37.32293045 9.21593612 -30.11328125 3.47265625 C-21.24254907 -2.70898152 -10.12077968 -4.75600549 0 0 Z " fill="#040403" transform="translate(498,115)"/>
<path d="M0 0 C0.66 0 1.32 0 2 0 C2 0.66 2 1.32 2 2 C3.98 2 5.96 2 8 2 C8 1.34 8 0.68 8 0 C8.66 0 9.32 0 10 0 C10 0.66 10 1.32 10 2 C12.64 2 15.28 2 18 2 C18 2.66 18 3.32 18 4 C15.36 4 12.72 4 10 4 C10 4.66 10 5.32 10 6 C11.32 6 12.64 6 14 6 C14 8.64 14 11.28 14 14 C15.32 14.33 16.64 14.66 18 15 C18 15.99 18 16.98 18 18 C17.01 18.33 16.02 18.66 15 19 C16.32 19.66 17.64 20.32 19 21 C17.35 21.33 15.7 21.66 14 22 C14.33 23.32 14.66 24.64 15 26 C14.34 26 13.68 26 13 26 C13 25.34 13 24.68 13 24 C11.35 24.66 9.7 25.32 8 26 C7.01 25.01 6.02 24.02 5 23 C5 24.32 5 25.64 5 27 C3.68 27.33 2.36 27.66 1 28 C0.67 27.01 0.34 26.02 0 25 C0.66 25 1.32 25 2 25 C1.67 24.01 1.34 23.02 1 22 C0.071875 22.99 0.071875 22.99 -0.875 24 C-3 26 -3 26 -5 26 C-4.67 24.68 -4.34 23.36 -4 22 C-4.99 22.33 -5.98 22.66 -7 23 C-7 22.01 -7 21.02 -7 20 C-6.34 19.67 -5.68 19.34 -5 19 C-5.99 18.67 -6.98 18.34 -8 18 C-8 17.34 -8 16.68 -8 16 C-5.03 16 -2.06 16 1 16 C1 15.34 1 14.68 1 14 C-0.65 14 -2.3 14 -4 14 C-4 11.36 -4 8.72 -4 6 C-2.68 6 -1.36 6 0 6 C0 5.34 0 4.68 0 4 C-2.64 4 -5.28 4 -8 4 C-8 3.34 -8 2.68 -8 2 C-5.36 2 -2.72 2 0 2 C0 1.34 0 0.68 0 0 Z " fill="#5C5A5C" transform="translate(565,237)"/>
<path d="M0 0 C0 0.66 0 1.32 0 2 C-2.31 2.33 -4.62 2.66 -7 3 C-7 4.98 -7 6.96 -7 9 C-5.68 8.67 -4.36 8.34 -3 8 C-3 7.01 -3 6.02 -3 5 C-1.68 5.66 -0.36 6.32 1 7 C1 7.99 1 8.98 1 10 C0.21625 10.144375 -0.5675 10.28875 -1.375 10.4375 C-3.96421018 10.87798925 -3.96421018 10.87798925 -6 12 C-1.89916455 12.375268 -1.89916455 12.375268 1.75 10.8125 C3.24270809 8.64807327 4.13051518 6.47468755 5 4 C4.01 4 3.02 4 2 4 C2 3.34 2 2.68 2 2 C5.96 2 9.92 2 14 2 C14.09765625 8.93359375 14.09765625 8.93359375 14 11 C13.67 11.33 13.34 11.66 13 12 C12.71254362 13.97154429 12.49415877 15.95340874 12.3125 17.9375 C12.20550781 19.01902344 12.09851563 20.10054688 11.98828125 21.21484375 C11.67374673 24.14316363 11.67374673 24.14316363 14 26 C13.67 26.66 13.34 27.32 13 28 C11.7315625 27.5359375 11.7315625 27.5359375 10.4375 27.0625 C6.86671385 25.95880246 3.73633186 25.20379992 0 25 C-1.68756133 25.96432076 -3.35666496 26.96210419 -5 28 C-7.8125 27.6875 -7.8125 27.6875 -10 27 C-10 26.34 -10 25.68 -10 25 C-9.37351562 24.84144531 -8.74703125 24.68289063 -8.1015625 24.51953125 C-2.84375314 23.2094023 -2.84375314 23.2094023 0.5625 19.3125 C0.7790625 18.1678125 0.7790625 18.1678125 1 17 C-0.98 16.67 -2.96 16.34 -5 16 C-5 18.31 -5 20.62 -5 23 C-5.99 23 -6.98 23 -8 23 C-8 19.7 -8 16.4 -8 13 C-8.66 13 -9.32 13 -10 13 C-10 9.37 -10 5.74 -10 2 C-3.375 0 -3.375 0 0 0 Z " fill="#222122" transform="translate(660,237)"/>
<path d="M0 0 C3.6578218 2.03993908 5.66946174 3.50419262 8 7 C8.23149511 11.19006145 7.66251243 14.89581262 5.5 18.5 C1.78357892 20.72985265 -1.68474076 21.32158778 -6 21 C-9.24921492 19.40493086 -11.20112602 18.00727589 -13.4375 15.1875 C-14.31325348 11.781792 -13.89136765 9.38719708 -13 6 C-8.8996774 1.16372207 -6.36301586 -0.61182845 0 0 Z " fill="#7F7B7E" transform="translate(343,239)"/>
<path d="M0 0 C5.94 0 11.88 0 18 0 C18 3.3 18 6.6 18 10 C17.21753906 10.06058594 16.43507813 10.12117187 15.62890625 10.18359375 C14.61699219 10.26738281 13.60507812 10.35117188 12.5625 10.4375 C11.55316406 10.51871094 10.54382813 10.59992188 9.50390625 10.68359375 C7.06359221 10.73211468 7.06359221 10.73211468 6 12 C12.93 12.495 12.93 12.495 20 13 C20 21.90909091 20 21.90909091 18 25 C14.875 25.8125 14.875 25.8125 12 26 C11.67 25.01 11.34 24.02 11 23 C12.65 22.67 14.3 22.34 16 22 C16.33 19.69 16.66 17.38 17 15 C15.9171875 16.11375 15.9171875 16.11375 14.8125 17.25 C6.00325027 25.86348862 6.00325027 25.86348862 0.25 26.125 C-0.4925 26.08375 -1.235 26.0425 -2 26 C-2.33 25.34 -2.66 24.68 -3 24 C-2.40832031 23.84144531 -1.81664062 23.68289063 -1.20703125 23.51953125 C4.21569926 21.91836612 7.35950451 20.34510752 11 16 C8.43166279 17.18538641 6.2768348 18.5017881 3.9375 20.125 C1 22 1 22 -2 22 C-1 19 -1 19 2.0625 17.3125 C3.031875 16.879375 4.00125 16.44625 5 16 C1.04 16.495 1.04 16.495 -3 17 C-3 16.34 -3 15.68 -3 15 C-1.03852126 13.61061923 0.96166576 12.2739589 3 11 C2.01 10.67 1.02 10.34 0 10 C0 6.7 0 3.4 0 0 Z " fill="#7C797B" transform="translate(683,238)"/>
<path d="M0 0 C4.62829761 0.72221787 6.48581952 3.27325599 9.3828125 6.7421875 C12.88270433 11.62850992 14 15.93209418 14 22 C6.08 22 -1.84 22 -10 22 C-7.971203 15.91360901 -6.33489649 11.35500314 -3.3125 5.9375 C-2.68988281 4.81214844 -2.06726563 3.68679687 -1.42578125 2.52734375 C-0.95527344 1.69332031 -0.48476563 0.85929688 0 0 Z " fill="#040506" transform="translate(497,130)"/>
<path d="M0 0 C1.32 0.66 2.64 1.32 4 2 C3.67 2.33 3.34 2.66 3 3 C7.29 3.33 11.58 3.66 16 4 C16 4.99 16 5.98 16 7 C14.85660156 7.04898438 13.71320312 7.09796875 12.53515625 7.1484375 C11.04424527 7.22345189 9.55336108 7.29900028 8.0625 7.375 C6.93038086 7.42140625 6.93038086 7.42140625 5.77539062 7.46875 C3.84492605 7.5726315 1.92057919 7.77895614 0 8 C-0.33 8.66 -0.66 9.32 -1 10 C3.29 10 7.58 10 12 10 C12 15.61 12 21.22 12 27 C10.35 27.33 8.7 27.66 7 28 C7 27.34 7 26.68 7 26 C7.66 26 8.32 26 9 26 C9 24.68 9 23.36 9 22 C5.37 22 1.74 22 -2 22 C-2 23.98 -2 25.96 -2 28 C-2.66 28 -3.32 28 -4 28 C-4.33 23.71 -4.66 19.42 -5 15 C-6.32 16.32 -7.64 17.64 -9 19 C-9 14.62548685 -8.59622397 13.99527997 -6 10.75 C-5.443125 10.04359375 -4.88625 9.3371875 -4.3125 8.609375 C-3.879375 8.07828125 -3.44625 7.5471875 -3 7 C-5.31 7 -7.62 7 -10 7 C-10 6.01 -10 5.02 -10 4 C-7.03 4 -4.06 4 -1 4 C-0.67 2.68 -0.34 1.36 0 0 Z " fill="#6F6B6E" transform="translate(719,236)"/>
<path d="M0 0 C5.94 0 11.88 0 18 0 C18 1.98 18 3.96 18 6 C17.01 6 16.02 6 15 6 C15 5.01 15 4.02 15 3 C14.01 3.33 13.02 3.66 12 4 C12.99 4.928125 12.99 4.928125 14 5.875 C16 8 16 8 16 10 C13.07120629 9.37240135 10.63904371 8.41377341 8 7 C7.67 7.33 7.34 7.66 7 8 C7.66 8.33 8.32 8.66 9 9 C9 10.32 9 11.64 9 13 C11.97 13 14.94 13 18 13 C18 13.66 18 14.32 18 15 C16.02 15.33 14.04 15.66 12 16 C13.2375 17.11375 13.2375 17.11375 14.5 18.25 C17 21 17 21 17 25 C13.73539027 23.19587357 12.11070205 22.16605307 10 19 C9.67 21.64 9.34 24.28 9 27 C8.01 27 7.02 27 6 27 C5.67 24.03 5.34 21.06 5 18 C2.03 21.465 2.03 21.465 -1 25 C-1.66 24.34 -2.32 23.68 -3 23 C-1.02 20.69 0.96 18.38 3 16 C1.68 15.67 0.36 15.34 -1 15 C-1 14.01 -1 13.02 -1 12 C-0.34 11.67 0.32 11.34 1 11 C1 10.01 1 9.02 1 8 C1.33 7.34 1.66 6.68 2 6 C1.34 6 0.68 6 0 6 C0 4.02 0 2.04 0 0 Z " fill="#171617" transform="translate(473,238)"/>
<path d="M0 0 C6.27 0 12.54 0 19 0 C19.12375 1.546875 19.2475 3.09375 19.375 4.6875 C19.74321964 8.44974411 20.2901325 11.580265 22 15 C21.01 15 20.02 15 19 15 C18.40703125 15.32742188 17.8140625 15.65484375 17.203125 15.9921875 C14.28453819 17.32728572 11.94314408 17.19441618 8.75 17.125 C7.67234375 17.10695313 6.5946875 17.08890625 5.484375 17.0703125 C4.66453125 17.04710937 3.8446875 17.02390625 3 17 C3 15.02 3 13.04 3 11 C3.66 11 4.32 11 5 11 C5 12.32 5 13.64 5 15 C6.32 14.67 7.64 14.34 9 14 C8.67 12.68 8.34 11.36 8 10 C5.36 10 2.72 10 0 10 C0 6.7 0 3.4 0 0 Z " fill="#5C595B" transform="translate(591,247)"/>
<path d="M0 0 C7.59 0 15.18 0 23 0 C20.834375 4.640625 20.834375 4.640625 18.625 9.375 C18.17334473 10.34872559 17.72168945 11.32245117 17.25634766 12.32568359 C16.89589355 13.09219238 16.53543945 13.85870117 16.1640625 14.6484375 C15.79748535 15.43395996 15.4309082 16.21948242 15.05322266 17.02880859 C14 19 14 19 12 21 C4.94821872 14.6613202 1.56936662 9.41619974 0 0 Z " fill="#050505" transform="translate(455,157)"/>
<path d="M0 0 C1.61648438 0.04060547 1.61648438 0.04060547 3.265625 0.08203125 C4.08546875 0.11683594 4.9053125 0.15164062 5.75 0.1875 C5.83139142 2.58402528 5.89067009 4.97775436 5.9375 7.375 C5.96263672 8.04853516 5.98777344 8.72207031 6.01367188 9.41601562 C6.07907182 13.88501197 5.50630065 16.64368488 2.75 20.1875 C0.50487738 21.31006131 -0.76456649 21.32163762 -3.25 21.3125 C-4.301875 21.31636719 -4.301875 21.31636719 -5.375 21.3203125 C-7.25 21.1875 -7.25 21.1875 -9.25 20.1875 C-9.25 19.5275 -9.25 18.8675 -9.25 18.1875 C-8.29287109 18.11402344 -8.29287109 18.11402344 -7.31640625 18.0390625 C-6.49011719 17.96429688 -5.66382813 17.88953125 -4.8125 17.8125 C-3.98878906 17.74289062 -3.16507812 17.67328125 -2.31640625 17.6015625 C-1.63449219 17.46492188 -0.95257813 17.32828125 -0.25 17.1875 C0.08 16.5275 0.41 15.8675 0.75 15.1875 C-0.85875 15.2803125 -0.85875 15.2803125 -2.5 15.375 C-6.25 15.1875 -6.25 15.1875 -8.6875 14.25 C-10.89039177 11.34218286 -10.73367074 8.9121943 -10.78125 5.34375 C-10.25 3.1875 -10.25 3.1875 -8.609375 1.41796875 C-5.5724569 -0.16585443 -3.40652061 -0.11108219 0 0 Z " fill="#807C7F" transform="translate(292.25,243.8125)"/>
<path d="M0 0 C1.32 0 2.64 0 4 0 C4 7.26 4 14.52 4 22 C-7.36238614 22.49401679 -7.36238614 22.49401679 -10.32421875 20.19921875 C-12.70669537 17.07256528 -13.06862393 14.91156399 -13 11 C-11 8.0625 -11 8.0625 -8 6 C-4.1875 5.6875 -4.1875 5.6875 -1 6 C-0.67 4.02 -0.34 2.04 0 0 Z " fill="#7C797B" transform="translate(406,238)"/>
<path d="M0 0 C4.29 0 8.58 0 13 0 C13 3.96 13 7.92 13 12 C11.02 12 9.04 12 7 12 C7.99 13.485 7.99 13.485 9 15 C10.32 14.34 11.64 13.68 13 13 C13 16 13 16 11.5 17.6875 C11.005 18.120625 10.51 18.55375 10 19 C11.65 20.65 13.3 22.3 15 24 C13.68 24.33 12.36 24.66 11 25 C7.47612355 20.88881081 5 17.53491888 5 12 C4.34 12 3.68 12 3 12 C3.33 14.97 3.66 17.94 4 21 C4.66 21 5.32 21 6 21 C5.25 22.9375 5.25 22.9375 4 25 C1.875 25.75 1.875 25.75 0 26 C-1.32411006 23.35177988 -1.01892401 21.51061806 -0.87890625 18.5546875 C-0.83056641 17.47832031 -0.78222656 16.40195313 -0.73242188 15.29296875 C-0.64831055 13.60107422 -0.64831055 13.60107422 -0.5625 11.875 C-0.51029297 10.73933594 -0.45808594 9.60367188 -0.40429688 8.43359375 C-0.27435706 5.62216864 -0.13779662 2.81105098 0 0 Z " fill="#807D80" transform="translate(750,238)"/>
<path d="M0 0 C1.32 0 2.64 0 4 0 C4 7.26 4 14.52 4 22 C-7.34109091 22.49309091 -7.34109091 22.49309091 -10.359375 20.234375 C-12.55399496 17.24551162 -12.58685293 15.50171511 -12.37890625 11.90625 C-12 10 -12 10 -10.4375 7.5 C-7.17971981 5.49521219 -4.75217167 5.71137141 -1 6 C-0.67 4.02 -0.34 2.04 0 0 Z " fill="#7F7B7E" transform="translate(250,238)"/>
<path d="M0 0 C0.66 0 1.32 0 2 0 C2.33 1.32 2.66 2.64 3 4 C6.96 4.33 10.92 4.66 15 5 C15 5.66 15 6.32 15 7 C10.71 7 6.42 7 2 7 C2 8.32 2 9.64 2 11 C4.97 11 7.94 11 11 11 C11 15.62 11 20.24 11 25 C9.35 25.33 7.7 25.66 6 26 C5.67 25.01 5.34 24.02 5 23 C6.32 23 7.64 23 9 23 C9 19.7 9 16.4 9 13 C7.02 13 5.04 13 3 13 C3 18.28 3 23.56 3 29 C2.01 29 1.02 29 0 29 C0 24.05 0 19.1 0 14 C-1.98 14 -3.96 14 -6 14 C-6 17.96 -6 21.92 -6 26 C-6.99 26 -7.98 26 -9 26 C-9 21.05 -9 16.1 -9 11 C-6.03 11 -3.06 11 0 11 C0 9.68 0 8.36 0 7 C-3.96 7 -7.92 7 -12 7 C-12 6.34 -12 5.68 -12 5 C-8.04 5 -4.08 5 0 5 C-0.33 3.68 -0.66 2.36 -1 1 C-0.67 0.67 -0.34 0.34 0 0 Z " fill="#7D7A7D" transform="translate(538,236)"/>
<path d="M0 0 C0 5.28 0 10.56 0 16 C-11.34109091 16.49309091 -11.34109091 16.49309091 -14.359375 14.234375 C-16.09023982 11.87710195 -16.54492653 10.87529794 -16.5 8 C-16.51546875 7.01 -16.51546875 7.01 -16.53125 6 C-14.37155191 -2.13062809 -6.64244519 -0.28880196 0 0 Z " fill="#7F7C7E" transform="translate(235,244)"/>
<path d="M0 0 C0.99 0 1.98 0 3 0 C3 1.32 3 2.64 3 4 C4.32 4 5.64 4 7 4 C7 2.68 7 1.36 7 0 C7.99 0 8.98 0 10 0 C10 1.32 10 2.64 10 4 C10.66 4 11.32 4 12 4 C12 4.66 12 5.32 12 6 C11.34 6 10.68 6 10 6 C10 9.96 10 13.92 10 18 C10.66 18 11.32 18 12 18 C12 18.66 12 19.32 12 20 C11.01 20.33 10.02 20.66 9 21 C9.33 21.99 9.66 22.98 10 24 C8.68 23.34 7.36 22.68 6 22 C6 21.67 6 21.34 6 21 C3.36 20.67 0.72 20.34 -2 20 C-2 19.34 -2 18.68 -2 18 C-1.34 18 -0.68 18 0 18 C0 14.04 0 10.08 0 6 C-0.66 6 -1.32 6 -2 6 C-2 5.34 -2 4.68 -2 4 C-1.34 4 -0.68 4 0 4 C0 2.68 0 1.36 0 0 Z " fill="#5C595B" transform="translate(620,237)"/>
<path d="M0 0 C2.4375 2.25 2.4375 2.25 4 5 C4 6.32 4 7.64 4 9 C0.04 9 -3.92 9 -8 9 C-7.01 9.99 -6.02 10.98 -5 12 C-1.35458155 11.76522801 -1.35458155 11.76522801 2 11 C2.33 11.99 2.66 12.98 3 14 C-0.40424088 16.09491746 -3.03414842 16.49573145 -7 16 C-10.20907572 13.8317056 -10.91479011 12.27567907 -12.0625 8.5625 C-12 5 -12 5 -10 2.0625 C-6.26790056 -0.50331836 -4.44071826 -0.80740332 0 0 Z " fill="#787578" transform="translate(159,244)"/>
<path d="M0 0 C2.4375 1.6875 2.4375 1.6875 4 4 C4 5.65 4 7.3 4 9 C0.04 9 -3.92 9 -8 9 C-7.01 9.99 -6.02 10.98 -5 12 C-1.35458155 11.76522801 -1.35458155 11.76522801 2 11 C2.33 11.99 2.66 12.98 3 14 C-0.41698297 16.10275875 -3.02317827 16.64927702 -7 16 C-9.43733864 13.87381097 -10.66903057 12.79625688 -12 10 C-12.06521697 6.15219858 -11.86990359 4.03719275 -9.375 1.0625 C-6.02317947 -0.43699866 -3.63019782 -0.45377473 0 0 Z " fill="#797578" transform="translate(90,244)"/>
<path d="M0 0 C1.32 0 2.64 0 4 0 C4 1.98 4 3.96 4 6 C5.258125 5.938125 6.51625 5.87625 7.8125 5.8125 C10.33514994 5.68843525 11.59365171 5.74603232 13.75 7.09375 C15.62026304 9.94590113 15.28745794 12.3222495 15.1875 15.6875 C15.16042969 16.86699219 15.13335937 18.04648437 15.10546875 19.26171875 C15.07066406 20.16535156 15.03585938 21.06898438 15 22 C13.68 22 12.36 22 11 22 C10.67 18.04 10.34 14.08 10 10 C8.35 10 6.7 10 5 10 C4.67 13.96 4.34 17.92 4 22 C2.68 22 1.36 22 0 22 C0 14.74 0 7.48 0 0 Z " fill="#7A7679" transform="translate(130,238)"/>
<path d="M0 0 C1.32 0 2.64 0 4 0 C4.33 1.98 4.66 3.96 5 6 C6.093125 5.938125 7.18625 5.87625 8.3125 5.8125 C12 6 12 6 13.71875 7.09375 C15.63271296 9.94135343 15.28800847 12.30371491 15.1875 15.6875 C15.16042969 16.86699219 15.13335937 18.04648437 15.10546875 19.26171875 C15.07066406 20.16535156 15.03585938 21.06898438 15 22 C13.68 22 12.36 22 11 22 C10.67 18.04 10.34 14.08 10 10 C8.35 10 6.7 10 5 10 C4.67 13.96 4.34 17.92 4 22 C2.68 22 1.36 22 0 22 C0 14.74 0 7.48 0 0 Z " fill="#7A7779" transform="translate(61,238)"/>
<path d="M0 0 C4.95 0 9.9 0 15 0 C15 0.99 15 1.98 15 3 C14.01 3.33 13.02 3.66 12 4 C13.32 4.66 14.64 5.32 16 6 C14.35 6.33 12.7 6.66 11 7 C11.33 8.32 11.66 9.64 12 11 C11.34 11 10.68 11 10 11 C10 10.34 10 9.68 10 9 C8.35 9.66 6.7 10.32 5 11 C4.01 10.01 3.02 9.02 2 8 C2 9.32 2 10.64 2 12 C0.68 12.33 -0.64 12.66 -2 13 C-2.33 12.01 -2.66 11.02 -3 10 C-2.34 10 -1.68 10 -1 10 C-1.33 9.01 -1.66 8.02 -2 7 C-2.928125 7.99 -2.928125 7.99 -3.875 9 C-6 11 -6 11 -8 11 C-7.048421 6.81305238 -6.3983349 5.29476783 -2.875 2.6875 C-1.92625 2.130625 -0.9775 1.57375 0 1 C0 0.67 0 0.34 0 0 Z " fill="#484648" transform="translate(568,252)"/>
<path d="M0 0 C0.33 0.99 0.66 1.98 1 3 C-1.64 3.33 -4.28 3.66 -7 4 C-7 5.65 -7 7.3 -7 9 C-4.03 9 -1.06 9 2 9 C2 9.99 2 10.98 2 12 C1.01 12 0.02 12 -1 12 C-1 16.95 -1 21.9 -1 27 C-1.99 27 -2.98 27 -4 27 C-4 21.72 -4 16.44 -4 11 C-4.99 11 -5.98 11 -7 11 C-6.95359375 11.556875 -6.9071875 12.11375 -6.859375 12.6875 C-6.56323177 18.94881396 -7.85501658 22.59455975 -11 28 C-11.99 27.34 -12.98 26.68 -14 26 C-13.5155542 25.43829102 -13.0311084 24.87658203 -12.53198242 24.29785156 C-10.79660611 21.69492537 -10.58733099 20.32472677 -10.48828125 17.234375 C-10.43510742 15.90019531 -10.43510742 15.90019531 -10.38085938 14.5390625 C-10.35830078 13.61867187 -10.33574219 12.69828125 -10.3125 11.75 C-10.27833984 10.81414062 -10.24417969 9.87828125 -10.20898438 8.9140625 C-10.12667838 6.60949467 -10.0574737 4.30529881 -10 2 C-8.7090864 1.66376204 -7.41723903 1.33110751 -6.125 1 C-5.40570312 0.814375 -4.68640625 0.62875 -3.9453125 0.4375 C-2 0 -2 0 0 0 Z " fill="#797678" transform="translate(643,237)"/>
<path d="M0 0 C0 5.61 0 11.22 0 17 C-1.65 17.33 -3.3 17.66 -5 18 C-5 17.34 -5 16.68 -5 16 C-4.34 16 -3.68 16 -3 16 C-3 14.68 -3 13.36 -3 12 C-6.63 12 -10.26 12 -14 12 C-14 8.37 -14 4.74 -14 1 C-3.375 0 -3.375 0 0 0 Z " fill="#7E7B7D" transform="translate(731,246)"/>
<path d="M0 0 C1.91796875 0.8203125 1.91796875 0.8203125 3.1796875 2.890625 C3.54513672 3.84582031 3.54513672 3.84582031 3.91796875 4.8203125 C1.37596058 4.8203125 -1.16653303 4.78291589 -3.70703125 4.6953125 C-7.15509251 4.43973969 -7.15509251 4.43973969 -9.08203125 6.8203125 C-9.32456938 9.03104227 -9.32456938 9.03104227 -9.20703125 11.4453125 C-9.18898438 12.26257813 -9.1709375 13.07984375 -9.15234375 13.921875 C-9.12914062 14.54835937 -9.1059375 15.17484375 -9.08203125 15.8203125 C-8.47875 15.8203125 -7.87546875 15.8203125 -7.25390625 15.8203125 C-3.52994792 15.8203125 0.19401042 15.8203125 3.91796875 15.8203125 C3.18359375 17.75390625 3.18359375 17.75390625 1.91796875 19.8203125 C-1.04947419 21.01322456 -3.91531976 21.14973551 -7.08203125 20.8203125 C-10.21360496 19.17688332 -12.48073329 17.02290841 -14.08203125 13.8203125 C-14.96891222 7.1687052 -14.96891222 7.1687052 -12.8359375 3.92578125 C-8.75582932 -0.09778964 -5.59003451 -0.75046935 0 0 Z " fill="#7D7A7C" transform="translate(323.08203125,239.1796875)"/>
<path d="M0 0 C0.99 0 1.98 0 3 0 C3 0.99 3 1.98 3 3 C5.97 3 8.94 3 12 3 C12 3.66 12 4.32 12 5 C10.68 5 9.36 5 8 5 C8 5.66 8 6.32 8 7 C9.98 7 11.96 7 14 7 C14 7.99 14 8.98 14 10 C5.42 10 -3.16 10 -12 10 C-12 9.01 -12 8.02 -12 7 C-9.69 7 -7.38 7 -5 7 C-5 6.34 -5 5.68 -5 5 C-6.65 5 -8.3 5 -10 5 C-10 4.34 -10 3.68 -10 3 C-6.7 3 -3.4 3 0 3 C0 2.01 0 1.02 0 0 Z " fill="#585658" transform="translate(599,236)"/>
<path d="M0 0 C1.9375 1.0625 1.9375 1.0625 3 3 C3.36248449 6.38318857 3.58433618 8.86784865 2 11.9375 C-1.23673698 13.65701652 -4.42307129 13.53653931 -8 13 C-10 11.875 -10 11.875 -11 10 C-11.53520313 6.40649325 -11.44814771 4.68118452 -9.4375 1.625 C-6.1005787 -0.5996142 -3.93094707 -0.50030235 0 0 Z " fill="#050505" transform="translate(344,243)"/>
<path d="M0 0 C0.66 0.33 1.32 0.66 2 1 C2 1.99 2 2.98 2 4 C-0.97 4 -3.94 4 -7 4 C-7.33 4.99 -7.66 5.98 -8 7 C-7.45730469 7.19335938 -6.91460937 7.38671875 -6.35546875 7.5859375 C-5.28232422 7.97652344 -5.28232422 7.97652344 -4.1875 8.375 C-3.47980469 8.63023437 -2.77210937 8.88546875 -2.04296875 9.1484375 C0 10 0 10 3 12 C3.4375 14.9375 3.4375 14.9375 3 18 C1.5625 19.875 1.5625 19.875 -1 21 C-4.0179637 21.23374934 -6.98010124 21.17422493 -10 21 C-10.66 19.68 -11.32 18.36 -12 17 C-8.04 17 -4.08 17 0 17 C-0.33 16.01 -0.66 15.02 -1 14 C-3.03277473 13.04882642 -3.03277473 13.04882642 -5.4375 12.4375 C-9.80269058 11.19730942 -9.80269058 11.19730942 -12 9 C-12.375 6.0625 -12.375 6.0625 -12 3 C-8.78760365 -1.01549544 -4.72616249 -0.30491371 0 0 Z " fill="#807C7F" transform="translate(55,239)"/>
<path d="M0 0 C7.26 0 14.52 0 22 0 C22.05372872 4.12517186 22.09354309 8.24965079 22.125 12.375 C22.15013672 14.1384375 22.15013672 14.1384375 22.17578125 15.9375 C22.18222656 17.05898437 22.18867187 18.18046875 22.1953125 19.3359375 C22.20578613 20.37282715 22.21625977 21.4097168 22.22705078 22.47802734 C22 25 22 25 20 27 C18.68 27 17.36 27 16 27 C15.67 26.01 15.34 25.02 15 24 C16.32 24 17.64 24 19 24 C19 17.07 19 10.14 19 3 C12.73 3 6.46 3 0 3 C0 2.01 0 1.02 0 0 Z " fill="#737073" transform="translate(802,238)"/>
<path d="M0 0 C11.37117904 -0.36681223 11.37117904 -0.36681223 13.875 1.09375 C15.56870427 3.96363779 15.28535186 6.39315417 15.1875 9.6875 C15.16042969 10.86699219 15.13335937 12.04648437 15.10546875 13.26171875 C15.07066406 14.16535156 15.03585937 15.06898438 15 16 C13.68 16 12.36 16 11 16 C10.67 12.04 10.34 8.08 10 4 C8.35 4 6.7 4 5 4 C4.67 7.96 4.34 11.92 4 16 C2.68 16 1.36 16 0 16 C0 10.72 0 5.44 0 0 Z " fill="#757274" transform="translate(264,244)"/>
<path d="M0 0 C0.99 0 1.98 0 3 0 C3 1.32 3 2.64 3 4 C5.97 4 8.94 4 12 4 C12 4.66 12 5.32 12 6 C10.02 6.33 8.04 6.66 6 7 C7.2375 8.11375 7.2375 8.11375 8.5 9.25 C11 12 11 12 11 16 C7.73539027 14.19587357 6.11070205 13.16605307 4 10 C3.67 12.64 3.34 15.28 3 18 C2.01 18 1.02 18 0 18 C-0.33 15.03 -0.66 12.06 -1 9 C-2.98 11.31 -4.96 13.62 -7 16 C-7.66 15.34 -8.32 14.68 -9 14 C-7.02 11.69 -5.04 9.38 -3 7 C-4.32 6.67 -5.64 6.34 -7 6 C-7 5.34 -7 4.68 -7 4 C-4.69 4 -2.38 4 0 4 C0 2.68 0 1.36 0 0 Z " fill="#7F7B7E" transform="translate(479,247)"/>
<path d="M0 0 C5.61 0 11.22 0 17 0 C17 1.32 17 2.64 17 4 C14.69 4 12.38 4 10 4 C10 9.61 10 15.22 10 21 C8.68 21 7.36 21 6 21 C6 15.39 6 9.78 6 4 C4.02 4 2.04 4 0 4 C0 2.68 0 1.36 0 0 Z " fill="#726F71" transform="translate(191,239)"/>
<path d="M0 0 C11.37117904 -0.36681223 11.37117904 -0.36681223 13.875 1.09375 C15.56870427 3.96363779 15.28535186 6.39315417 15.1875 9.6875 C15.16042969 10.86699219 15.13335937 12.04648437 15.10546875 13.26171875 C15.07066406 14.16535156 15.03585938 15.06898438 15 16 C14.01 16 13.02 16 12 16 C11.93941406 15.21753906 11.87882813 14.43507813 11.81640625 13.62890625 C11.73261719 12.61699219 11.64882812 11.60507813 11.5625 10.5625 C11.48128906 9.55316406 11.40007812 8.54382813 11.31640625 7.50390625 C11.26788532 5.06359221 11.26788532 5.06359221 10 4 C8.35 4 6.7 4 5 4 C4.67 7.96 4.34 11.92 4 16 C2.68 16 1.36 16 0 16 C0 10.72 0 5.44 0 0 Z " fill="#787577" transform="translate(165,244)"/>
<path d="M0 0 C4.62 0 9.24 0 14 0 C12.38617965 4.03455089 11.59503354 5.79681064 8.875 8.8125 C8.33617188 9.41707031 7.79734375 10.02164063 7.2421875 10.64453125 C6.83226563 11.09183594 6.42234375 11.53914062 6 12 C8.64 12.33 11.28 12.66 14 13 C14 13.99 14 14.98 14 16 C9.05 16 4.1 16 -1 16 C0.61382035 11.96544911 1.40496646 10.20318936 4.125 7.1875 C4.66382812 6.58292969 5.20265625 5.97835937 5.7578125 5.35546875 C6.16773437 4.90816406 6.57765625 4.46085938 7 4 C4.69 3.67 2.38 3.34 0 3 C0 2.01 0 1.02 0 0 Z " fill="#7F7C7E" transform="translate(114,244)"/>
<path d="M0 0 C4.62 0 9.24 0 14 0 C14 3.3 14 6.6 14 10 C13.34 10 12.68 10 12 10 C12 9.34 12 8.68 12 8 C8.7 8 5.4 8 2 8 C2 8.99 2 9.98 2 11 C1.34 11 0.68 11 0 11 C0 7.37 0 3.74 0 0 Z " fill="#827E81" transform="translate(803,250)"/>
<path d="M0 0 C1.32 0 2.64 0 4 0 C4 5.94 4 11.88 4 18 C7.63 18 11.26 18 15 18 C15 18.99 15 19.98 15 21 C10.05 21 5.1 21 0 21 C0 14.07 0 7.14 0 0 Z " fill="#797678" transform="translate(367,239)"/>
<path d="M0 0 C1.32 0 2.64 0 4 0 C4 1.98 4 3.96 4 6 C5.65 6 7.3 6 9 6 C9 6.99 9 7.98 9 9 C7.35 9 5.7 9 4 9 C4.33 11.97 4.66 14.94 5 18 C5.99 18.33 6.98 18.66 8 19 C8 19.99 8 20.98 8 22 C3.50798722 22.36421725 3.50798722 22.36421725 1.34375 20.8125 C-0.46278055 18.37578437 -0.30430752 16.81055979 -0.1875 13.8125 C-0.16042969 12.91144531 -0.13335937 12.01039063 -0.10546875 11.08203125 C-0.07066406 10.39496094 -0.03585937 9.70789063 0 9 C-0.66 9 -1.32 9 -2 9 C-2 8.01 -2 7.02 -2 6 C-1.34 6 -0.68 6 0 6 C0 4.02 0 2.04 0 0 Z " fill="#7C797B" transform="translate(384,238)"/>
<path d="M0 0 C10.38229695 -0.36643401 10.38229695 -0.36643401 12.84375 1.09375 C14.58186141 3.95928502 14.2858636 6.37592531 14.1875 9.6875 C14.16042969 10.86699219 14.13335937 12.04648437 14.10546875 13.26171875 C14.07066406 14.16535156 14.03585938 15.06898438 14 16 C13.01 16 12.02 16 11 16 C10.93941406 15.21753906 10.87882812 14.43507813 10.81640625 13.62890625 C10.73261719 12.61699219 10.64882812 11.60507813 10.5625 10.5625 C10.48128906 9.55316406 10.40007812 8.54382813 10.31640625 7.50390625 C10.26788532 5.06359221 10.26788532 5.06359221 9 4 C7.35 4 5.7 4 4 4 C3.67 7.63 3.34 11.26 3 15 C2.01 15 1.02 15 0 15 C0 10.05 0 5.1 0 0 Z " fill="#848184" transform="translate(97,244)"/>
<path d="M0 0 C2.97 0 5.94 0 9 0 C8.66226563 0.84820312 8.32453125 1.69640625 7.9765625 2.5703125 C6.9059196 6.33041037 6.98002661 9.00426073 7.375 12.875 C7.48585938 14.02742187 7.59671875 15.17984375 7.7109375 16.3671875 C7.80632813 17.23601562 7.90171875 18.10484375 8 19 C6.02 19.99 6.02 19.99 4 21 C3.67 20.01 3.34 19.02 3 18 C3.66 18 4.32 18 5 18 C4.91621094 17.18015625 4.83242188 16.3603125 4.74609375 15.515625 C4.64425781 14.43796875 4.54242187 13.3603125 4.4375 12.25 C4.33308594 11.18265625 4.22867188 10.1153125 4.12109375 9.015625 C4.01439926 6.35858796 4.18069605 4.50039428 5 2 C4.01 2 3.02 2 2 2 C2 9.92 2 17.84 2 26 C1.34 26 0.68 26 0 26 C0 17.42 0 8.84 0 0 Z " fill="#8B878A" transform="translate(740,238)"/>
<path d="M0 0 C0.99 0.33 1.98 0.66 3 1 C1.66511872 4.59391114 0.03977277 7.75490696 -2 11 C0.97 11 3.94 11 7 11 C6.67 9.68 6.34 8.36 6 7 C6.99 7 7.98 7 9 7 C11.25 9.75 11.25 9.75 13 13 C12.75 15.375 12.75 15.375 12 17 C11.34 17 10.68 17 10 17 C9.67 16.34 9.34 15.68 9 15 C1.08 15.495 1.08 15.495 -7 16 C-7.33 15.01 -7.66 14.02 -8 13 C-6.85546875 10.87890625 -6.85546875 10.87890625 -5.1875 8.5625 C-3.20393287 5.77796752 -1.44813917 3.10113705 0 0 Z " fill="#7D797C" transform="translate(780,247)"/>
<path d="M0 0 C4.62 0 9.24 0 14 0 C14 2.64 14 5.28 14 8 C9.38 8 4.76 8 0 8 C0 5.36 0 2.72 0 0 Z " fill="#363536" transform="translate(685,239)"/>
<path d="M0 0 C0.68384766 0.00902344 1.36769531 0.01804688 2.07226562 0.02734375 C3.73583287 0.05061042 5.39921631 0.08646833 7.0625 0.125 C6.7325 1.115 6.4025 2.105 6.0625 3.125 C6.0625 2.465 6.0625 1.805 6.0625 1.125 C2.1025 1.125 -1.8575 1.125 -5.9375 1.125 C-5.9375 1.785 -5.9375 2.445 -5.9375 3.125 C-4.9475 3.125 -3.9575 3.125 -2.9375 3.125 C-3.99625074 6.52812738 -4.94652154 9.13853231 -6.9375 12.125 C-8.8828125 12.41796875 -8.8828125 12.41796875 -11.0625 12.3125 C-12.980625 12.2196875 -12.980625 12.2196875 -14.9375 12.125 C-12.88516315 9.8772025 -11.93082739 9.1227758 -8.9375 8.125 C-8.2775 8.455 -7.6175 8.785 -6.9375 9.125 C-8.2464572 6.00302522 -8.2464572 6.00302522 -10.9375 4.125 C-10.9375 5.115 -10.9375 6.105 -10.9375 7.125 C-12.2575 7.455 -13.5775 7.785 -14.9375 8.125 C-14.9375 6.145 -14.9375 4.165 -14.9375 2.125 C-9.77803135 0.4208322 -5.4949667 -0.09725605 0 0 Z " fill="#212021" transform="translate(667.9375,237.875)"/>
<path d="M0 0 C0.33 0 0.66 0 1 0 C1.07347656 0.99580078 1.07347656 0.99580078 1.1484375 2.01171875 C1.71125812 8.7112236 1.71125812 8.7112236 4 15 C3.01 15 2.02 15 1 15 C0.40703125 15.32742188 -0.1859375 15.65484375 -0.796875 15.9921875 C-3.71546181 17.32728572 -6.05685592 17.19441618 -9.25 17.125 C-10.32765625 17.10695313 -11.4053125 17.08890625 -12.515625 17.0703125 C-13.33546875 17.04710937 -14.1553125 17.02390625 -15 17 C-15 15.02 -15 13.04 -15 11 C-14.34 11 -13.68 11 -13 11 C-13 12.32 -13 13.64 -13 15 C-12.1028125 14.505 -12.1028125 14.505 -11.1875 14 C-9 13 -9 13 -6 13 C-6.33 12.01 -6.66 11.02 -7 10 C-4.69 10 -2.38 10 0 10 C0 6.7 0 3.4 0 0 Z " fill="#2B2A2B" transform="translate(609,247)"/>
<path d="M0 0 C3.3 0 6.6 0 10 0 C11.07349791 4.29399165 10.79682816 5.19495213 9 9 C6.03 9 3.06 9 0 9 C0 6.03 0 3.06 0 0 Z " fill="#706D70" transform="translate(751,240)"/>
<path d="M0 0 C0 0.33 0 0.66 0 1 C-3.63 1 -7.26 1 -11 1 C-11 2.32 -11 3.64 -11 5 C-7.7 5 -4.4 5 -1 5 C-1 5.33 -1 5.66 -1 6 C-4.3 6 -7.6 6 -11 6 C-11 7.32 -11 8.64 -11 10 C-7.7 10 -4.4 10 -1 10 C-1 10.33 -1 10.66 -1 11 C-4.3 11 -7.6 11 -11 11 C-11 13.31 -11 15.62 -11 18 C-11.66 18 -12.32 18 -13 18 C-13.33 13.71 -13.66 9.42 -14 5 C-15.32 6.32 -16.64 7.64 -18 9 C-18 5 -18 5 -15.75 2.25 C-11.18805375 -1.35327639 -5.49539049 -0.40014979 0 0 Z " fill="#888487" transform="translate(728,246)"/>
<path d="M0 0 C5.94 0 11.88 0 18 0 C18 3.3 18 6.6 18 10 C12.555 10.495 12.555 10.495 7 11 C7 11.99 7 12.98 7 14 C5.35 14 3.7 14 2 14 C2.33 13.01 2.66 12.02 3 11 C2.01 10.67 1.02 10.34 0 10 C0 6.7 0 3.4 0 0 Z M2 1 C2 3.64 2 6.28 2 9 C6.62 9 11.24 9 16 9 C16 6.36 16 3.72 16 1 C11.38 1 6.76 1 2 1 Z " fill="#8A8689" transform="translate(683,238)"/>
<path d="M0 0 C0.99 0 1.98 0 3 0 C3.11760715 3.16634636 3.18771024 6.33212074 3.25 9.5 C3.30027344 10.8303125 3.30027344 10.8303125 3.3515625 12.1875 C3.44559663 18.58182101 2.26746467 22.49419338 -1 28 C-1.99 27.34 -2.98 26.68 -4 26 C-3.51917969 25.39800781 -3.03835938 24.79601562 -2.54296875 24.17578125 C-0.31082219 19.58151503 -0.43113836 15.23471476 -0.3125 10.1875 C-0.27833984 9.20845703 -0.24417969 8.22941406 -0.20898438 7.22070312 C-0.12680142 4.81391655 -0.05755567 2.40748055 0 0 Z " fill="#6E6B6E" transform="translate(507,237)"/>
<path d="M0 0 C2.9375 0.1875 2.9375 0.1875 3.9375 1.1875 C4.0703125 3 4.0703125 3 4.0625 5.1875 C4.06507813 5.909375 4.06765625 6.63125 4.0703125 7.375 C3.9375 9.1875 3.9375 9.1875 2.9375 10.1875 C0.59805264 9.90019945 -1.7364143 9.56813221 -4.0625 9.1875 C-4.6875 5.8125 -4.6875 5.8125 -5.0625 2.1875 C-3.0625 0.1875 -3.0625 0.1875 0 0 Z " fill="#080808" transform="translate(246.0625,246.8125)"/>
<path d="M0 0 C2.9375 0.1875 2.9375 0.1875 3.9375 1.1875 C4.07865161 3.85808851 3.97997107 6.51182238 3.9375 9.1875 C-1.50986842 10.51907895 -1.50986842 10.51907895 -3.9375 9.0625 C-5.4193671 6.59272151 -5.4258156 5.02136167 -5.0625 2.1875 C-3.0625 0.1875 -3.0625 0.1875 0 0 Z " fill="#060606" transform="translate(402.0625,246.8125)"/>
<path d="M0 0 C2.9375 0.1875 2.9375 0.1875 3.9375 1.1875 C4.0703125 3 4.0703125 3 4.0625 5.1875 C4.06507813 5.909375 4.06765625 6.63125 4.0703125 7.375 C3.9375 9.1875 3.9375 9.1875 2.9375 10.1875 C0.12798514 10.48323841 -1.47878976 10.56993085 -3.875 9 C-5.46449375 6.5739306 -5.42737512 5.03352594 -5.0625 2.1875 C-3.0625 0.1875 -3.0625 0.1875 0 0 Z " fill="#080808" transform="translate(227.0625,246.8125)"/>
<path d="M0 0 C0 3.3 0 6.6 0 10 C0.99 10 1.98 10 3 10 C3 10.66 3 11.32 3 12 C2.01 12.33 1.02 12.66 0 13 C0.33 13.99 0.66 14.98 1 16 C-0.32 15.34 -1.64 14.68 -3 14 C-3 13.67 -3 13.34 -3 13 C-5.64 12.67 -8.28 12.34 -11 12 C-11 11.34 -11 10.68 -11 10 C-10.01 10 -9.02 10 -8 10 C-8 8.68 -8 7.36 -8 6 C-6.02 5.67 -4.04 5.34 -2 5 C-1.67 4.01 -1.34 3.02 -1 2 C-1.66 1.67 -2.32 1.34 -3 1 C-1 0 -1 0 0 0 Z " fill="#726F71" transform="translate(629,245)"/>
<path d="M0 0 C0.66 0 1.32 0 2 0 C2 0.66 2 1.32 2 2 C3.98 2 5.96 2 8 2 C8 1.34 8 0.68 8 0 C8.66 0 9.32 0 10 0 C10 0.66 10 1.32 10 2 C12.64 2 15.28 2 18 2 C18 2.66 18 3.32 18 4 C15.36 4 12.72 4 10 4 C9.67 4.66 9.34 5.32 9 6 C6.03 6 3.06 6 0 6 C0 5.34 0 4.68 0 4 C-2.64 4 -5.28 4 -8 4 C-8 3.34 -8 2.68 -8 2 C-5.36 2 -2.72 2 0 2 C0 1.34 0 0.68 0 0 Z " fill="#6F6C6F" transform="translate(565,237)"/>
<path d="M0 0 C0.66 0 1.32 0 2 0 C2 2.64 2 5.28 2 8 C-1.3 8.33 -4.6 8.66 -8 9 C-5.03 9.495 -5.03 9.495 -2 10 C-2 10.33 -2 10.66 -2 11 C-2.56847656 11.01417969 -3.13695312 11.02835938 -3.72265625 11.04296875 C-9.97774682 11.42934329 -13.18763354 13.00675974 -18 17 C-18.66 16.34 -19.32 15.68 -20 15 C-19.01 14.34 -18.02 13.68 -17 13 C-17.99 12.67 -18.98 12.34 -20 12 C-20 11.34 -20 10.68 -20 10 C-17.03 10 -14.06 10 -11 10 C-10.67 9.01 -10.34 8.02 -10 7 C-6.7 7 -3.4 7 0 7 C-0.33 5.68 -0.66 4.36 -1 3 C-0.67 2.01 -0.34 1.02 0 0 Z " fill="#878386" transform="translate(577,243)"/>
<path d="M0 0 C0.33 0.66 0.66 1.32 1 2 C2.65 2 4.3 2 6 2 C4.04343039 5.5218253 2.04899025 8.34442785 -1 11 C-1.66 11 -2.32 11 -3 11 C-3.33 11.66 -3.66 12.32 -4 13 C-4.66 12.67 -5.32 12.34 -6 12 C-5.71758359 10.53984709 -5.42373386 9.08190207 -5.125 7.625 C-4.96257812 6.81289063 -4.80015625 6.00078125 -4.6328125 5.1640625 C-4 3 -4 3 -2 1 C-1.34 1.33 -0.68 1.66 0 2 C0 1.34 0 0.68 0 0 Z " fill="#0D0D0D" transform="translate(471,251)"/>
<path d="M0 0 C2.9375 0.1875 2.9375 0.1875 3.9375 1.1875 C4.0625 4.6875 4.0625 4.6875 3.9375 8.1875 C2.9375 9.1875 2.9375 9.1875 0 9.375 C-3.0625 9.1875 -3.0625 9.1875 -5.0625 7.1875 C-5.3125 4.6875 -5.3125 4.6875 -5.0625 2.1875 C-3.0625 0.1875 -3.0625 0.1875 0 0 Z " fill="#050505" transform="translate(290.0625,246.8125)"/>
<path d="M0 0 C0 0.66 0 1.32 0 2 C-2.31 2.33 -4.62 2.66 -7 3 C-7 4.98 -7 6.96 -7 9 C-5.68 8.67 -4.36 8.34 -3 8 C-3 7.01 -3 6.02 -3 5 C-1.68 5.66 -0.36 6.32 1 7 C1 7.99 1 8.98 1 10 C0.29875 10.12375 -0.4025 10.2475 -1.125 10.375 C-4.17656387 11.03838345 -7.05340938 11.97211955 -10 13 C-10 9.37 -10 5.74 -10 2 C-3.375 0 -3.375 0 0 0 Z " fill="#6E6B6E" transform="translate(660,237)"/>
<path d="M0 0 C0.66 0 1.32 0 2 0 C2 2.31 2 4.62 2 7 C2.99 7 3.98 7 5 7 C5 7.66 5 8.32 5 9 C4.01 9 3.02 9 2 9 C2.33 11.64 2.66 14.28 3 17 C3.66 17 4.32 17 5 17 C5 17.99 5 18.98 5 20 C2.03 20.66 -0.94 21.32 -4 22 C-4 21.01 -4 20.02 -4 19 C-2.68 19 -1.36 19 0 19 C0 15.7 0 12.4 0 9 C-0.99 9 -1.98 9 -3 9 C-3 8.34 -3 7.68 -3 7 C-2.01 7 -1.02 7 0 7 C0 4.69 0 2.38 0 0 Z " fill="#868285" transform="translate(500,238)"/>
<path d="M0 0 C1.32 0.33 2.64 0.66 4 1 C6.68149993 0.61432869 6.68149993 0.61432869 9 0 C9 0.99 9 1.98 9 3 C7.7934375 3.5259375 7.7934375 3.5259375 6.5625 4.0625 C3.79060479 5.72715724 3.79060479 5.72715724 3.4453125 8.4140625 C3.20978584 10.94775844 3.05249771 13.45624717 3 16 C2.01 16 1.02 16 0 16 C0 10.72 0 5.44 0 0 Z " fill="#868285" transform="translate(208,244)"/>
<path d="M0 0 C3.96 0 7.92 0 12 0 C12.09765625 6.93359375 12.09765625 6.93359375 12 9 C11 10 11 10 8.4375 10.0625 C7.633125 10.041875 6.82875 10.02125 6 10 C6 9.34 6 8.68 6 8 C6.99 7.67 7.98 7.34 9 7 C9.33 5.35 9.66 3.7 10 2 C8.35 2 6.7 2 5 2 C4.9175 2.7425 4.835 3.485 4.75 4.25 C3.8603054 7.51221354 2.51496251 8.80954878 0 11 C-0.66 10.34 -1.32 9.68 -2 9 C-1.01 8.34 -0.02 7.68 1 7 C2.20450304 4.44816596 2.20450304 4.44816596 3 2 C2.01 2 1.02 2 0 2 C0 1.34 0 0.68 0 0 Z " fill="#7E7B7E" transform="translate(662,239)"/>
<path d="M0 0 C2.17311218 0.31639689 2.17311218 0.31639689 5.015625 0.25390625 C7.35127433 0.57060446 9.6850032 0.90211428 12.015625 1.25390625 C12.015625 1.91390625 12.015625 2.57390625 12.015625 3.25390625 C3.435625 3.25390625 -5.144375 3.25390625 -13.984375 3.25390625 C-13.984375 2.26390625 -13.984375 1.27390625 -13.984375 0.25390625 C-9.07793614 -0.6856246 -4.94795331 -0.68337117 0 0 Z " fill="#6B696B" transform="translate(600.984375,242.74609375)"/>
<path d="M0 0 C1.32 0 2.64 0 4 0 C4 5.28 4 10.56 4 16 C2.68 16 1.36 16 0 16 C0 10.72 0 5.44 0 0 Z " fill="#777376" transform="translate(257,244)"/>
<path d="M0 0 C5.94 0 11.88 0 18 0 C18 2.64 18 5.28 18 8 C17.34 8 16.68 8 16 8 C16 6.02 16 4.04 16 2 C11.38 2 6.76 2 2 2 C2 4.31 2 6.62 2 9 C1.34 9 0.68 9 0 9 C0 6.03 0 3.06 0 0 Z " fill="#7E7B7D" transform="translate(653,251)"/>
<path d="M0 0 C4.75 0.75 4.75 0.75 7 3 C7.1953125 6.0390625 7.1953125 6.0390625 7.125 9.625 C7.10695312 10.81351563 7.08890625 12.00203125 7.0703125 13.2265625 C7.04710937 14.14179688 7.02390625 15.05703125 7 16 C6.01 16 5.02 16 4 16 C3.97421875 15.22914063 3.9484375 14.45828125 3.921875 13.6640625 C3.86515625 12.66117187 3.8084375 11.65828125 3.75 10.625 C3.70359375 9.62726563 3.6571875 8.62953125 3.609375 7.6015625 C3.27839115 4.8473523 3.27839115 4.8473523 0.953125 3.6484375 C0.30859375 3.43445313 -0.3359375 3.22046875 -1 3 C-0.67 2.01 -0.34 1.02 0 0 Z " fill="#868285" transform="translate(173,244)"/>
<path d="M0 0 C5.94 0 11.88 0 18 0 C18 1.98 18 3.96 18 6 C17.01 6 16.02 6 15 6 C15 4.68 15 3.36 15 2 C10.71 2 6.42 2 2 2 C2 3.32 2 4.64 2 6 C1.34 6 0.68 6 0 6 C0 4.02 0 2.04 0 0 Z " fill="#7A777A" transform="translate(473,238)"/>
<path d="M0 0 C0.99 0 1.98 0 3 0 C3.05394705 2.60444348 3.09364469 5.20776998 3.125 7.8125 C3.14175781 8.55048828 3.15851562 9.28847656 3.17578125 10.04882812 C3.21074628 13.91246426 3.19397555 15.70903668 1 19 C0.01 18.67 -0.98 18.34 -2 18 C-1.34 18 -0.68 18 0 18 C-0.66 16.68 -1.32 15.36 -2 14 C-0.68 14 0.64 14 2 14 C2 13.34 2 12.68 2 12 C1.34 12 0.68 12 0 12 C0 8.04 0 4.08 0 0 Z " fill="#020202" transform="translate(630,243)"/>
<path d="M0 0 C0.33 0 0.66 0 1 0 C1 3.3 1 6.6 1 10 C1.66 10 2.32 10 3 10 C3.46450943 16.50313209 2.32575612 20.4174808 -1 26 C-1.99 25.34 -2.98 24.68 -4 24 C-3.5155542 23.43829102 -3.0311084 22.87658203 -2.53198242 22.29785156 C-0.79660611 19.69492537 -0.58733099 18.32472677 -0.48828125 15.234375 C-0.43510742 13.90019531 -0.43510742 13.90019531 -0.38085938 12.5390625 C-0.35830078 11.61867187 -0.33574219 10.69828125 -0.3125 9.75 C-0.27833984 8.81414062 -0.24417969 7.87828125 -0.20898438 6.9140625 C-0.12667838 4.60949467 -0.0574737 2.30529881 0 0 Z " fill="#5E5C5E" transform="translate(633,239)"/>
<path d="M0 0 C5.48780488 0.48780488 5.48780488 0.48780488 7.875 2.875 C9 5 9 5 9 8 C8.34 8 7.68 8 7 8 C7 7.34 7 6.68 7 6 C5.35 6.66 3.7 7.32 2 8 C0.4375 6.8125 0.4375 6.8125 -1 5 C-0.6875 2.3125 -0.6875 2.3125 0 0 Z " fill="#3E3C3D" transform="translate(571,255)"/>
<path d="M0 0 C0.33 0 0.66 0 1 0 C1.33 3.96 1.66 7.92 2 12 C2.33 12 2.66 12 3 12 C3.33 14.97 3.66 17.94 4 21 C4.66 21 5.32 21 6 21 C5.25 22.9375 5.25 22.9375 4 25 C1.875 25.75 1.875 25.75 0 26 C-1.32411006 23.35177988 -1.01892401 21.51061806 -0.87890625 18.5546875 C-0.83056641 17.47832031 -0.78222656 16.40195313 -0.73242188 15.29296875 C-0.64831055 13.60107422 -0.64831055 13.60107422 -0.5625 11.875 C-0.51029297 10.73933594 -0.45808594 9.60367188 -0.40429688 8.43359375 C-0.27435544 5.62213369 -0.13938086 2.81100535 0 0 Z " fill="#6A6769" transform="translate(750,238)"/>
<path d="M0 0 C0.99 0 1.98 0 3 0 C3 5.28 3 10.56 3 16 C2.34 16 1.68 16 1 16 C1.33 16.99 1.66 17.98 2 19 C1.5625 21.6875 1.5625 21.6875 1 24 C0.67 24 0.34 24 0 24 C0 16.08 0 8.16 0 0 Z " fill="#141414" transform="translate(742,240)"/>
<path d="M0 0 C0.99 0 1.98 0 3 0 C4.24609375 1.609375 4.24609375 1.609375 5.4375 3.75 C7.31716529 6.96251886 9.19383943 9.50563505 12 12 C10.02 12.99 10.02 12.99 8 14 C6.84299806 12.61341021 5.69982377 11.21527559 4.5625 9.8125 C3.92441406 9.03519531 3.28632812 8.25789062 2.62890625 7.45703125 C0.92823443 4.89174929 0.38169969 3.02671729 0 0 Z " fill="#7D797C" transform="translate(785,238)"/>
<path d="M0 0 C0.99 0 1.98 0 3 0 C5.25 2.75 5.25 2.75 7 6 C6.75 8.375 6.75 8.375 6 10 C5.34 10 4.68 10 4 10 C3.67 9.34 3.34 8.68 3 8 C-0.0399648 7.30662208 -0.0399648 7.30662208 -3.5625 6.875 C-5.35880859 6.62363281 -5.35880859 6.62363281 -7.19140625 6.3671875 C-8.11824219 6.24601562 -9.04507813 6.12484375 -10 6 C-10 5.67 -10 5.34 -10 5 C-4.555 4.505 -4.555 4.505 1 4 C0.67 2.68 0.34 1.36 0 0 Z " fill="#767376" transform="translate(786,254)"/>
<path d="M0 0 C2.475 0.495 2.475 0.495 5 1 C4.67 1.99 4.34 2.98 4 4 C3.77820215 5.89212737 3.59385985 7.78884472 3.4375 9.6875 C3.31181641 11.17830078 3.31181641 11.17830078 3.18359375 12.69921875 C3.12300781 13.45847656 3.06242187 14.21773438 3 15 C2.01 15 1.02 15 0 15 C0 10.05 0 5.1 0 0 Z " fill="#8A878A" transform="translate(97,244)"/>
<path d="M0 0 C2 2 2 2 2.1953125 4.6015625 C2.17210937 5.59929687 2.14890625 6.59703125 2.125 7.625 C2.10695313 8.62789062 2.08890625 9.63078125 2.0703125 10.6640625 C2.03550781 11.82035156 2.03550781 11.82035156 2 13 C1.34 12.67 0.68 12.34 0 12 C0 11.34 0 10.68 0 10 C-0.99 10.33 -1.98 10.66 -3 11 C-3 8.03 -3 5.06 -3 2 C-2.01 2 -1.02 2 0 2 C0 1.34 0 0.68 0 0 Z " fill="#0F0F0F" transform="translate(505,245)"/>
<path d="M0 0 C0.99 0.66 1.98 1.32 3 2 C2.814375 3.11375 2.62875 4.2275 2.4375 5.375 C1.68319343 8.82568861 1.68319343 8.82568861 3 11 C3.039992 12.99960012 3.04346799 15.00047242 3 17 C1.02 17.99 1.02 17.99 -1 19 C-1.33 18.01 -1.66 17.02 -2 16 C-1.34 16 -0.68 16 0 16 C-0.08378906 15.18015625 -0.16757812 14.3603125 -0.25390625 13.515625 C-0.40666016 11.89914063 -0.40666016 11.89914063 -0.5625 10.25 C-0.66691406 9.18265625 -0.77132812 8.1153125 -0.87890625 7.015625 C-0.98560074 4.35858796 -0.81930395 2.50039428 0 0 Z " fill="#716E70" transform="translate(745,240)"/>
<path d="M0 0 C4.95 0 9.9 0 15 0 C15 0.99 15 1.98 15 3 C14.01 3.33 13.02 3.66 12 4 C13.32 4.66 14.64 5.32 16 6 C14.3125 6.6875 14.3125 6.6875 12 7 C9.25 5.75 9.25 5.75 7 4 C7 3.01 7 2.02 7 1 C4.69 1 2.38 1 0 1 C0 0.67 0 0.34 0 0 Z " fill="#676567" transform="translate(568,252)"/>
<path d="M0 0 C1.65 0 3.3 0 5 0 C5 1.65 5 3.3 5 5 C3.68 5.33 2.36 5.66 1 6 C1 6.99 1 7.98 1 9 C-0.65 9 -2.3 9 -4 9 C-2.68 6.03 -1.36 3.06 0 0 Z " fill="#0B0B0B" transform="translate(667,241)"/>
<path d="M0 0 C0.33 0.99 0.66 1.98 1 3 C3.31 3.33 5.62 3.66 8 4 C7.67 5.32 7.34 6.64 7 8 C5.02 8 3.04 8 1 8 C0.67 9.32 0.34 10.64 0 12 C0 8.04 0 4.08 0 0 Z " fill="#6C696C" transform="translate(620,243)"/>
<path d="M0 0 C0.99 0.33 1.98 0.66 3 1 C2.2368139 2.60781893 1.46412942 4.21113138 0.6875 5.8125 C0.25824219 6.70582031 -0.17101562 7.59914062 -0.61328125 8.51953125 C-1.88221789 10.78931933 -3.06556898 12.29248171 -5 14 C-5.99 13.67 -6.98 13.34 -8 13 C-7.50628906 12.22914063 -7.01257813 11.45828125 -6.50390625 10.6640625 C-5.86324219 9.66117188 -5.22257813 8.65828125 -4.5625 7.625 C-3.92441406 6.62726563 -3.28632812 5.62953125 -2.62890625 4.6015625 C-1.03100789 2.14169479 -1.03100789 2.14169479 0 0 Z " fill="#827F82" transform="translate(777,238)"/>
<path d="M0 0 C0.99 0.33 1.98 0.66 3 1 C0.94490667 6.02356147 -1.10824388 8.55412194 -6 11 C-8.875 10.75 -8.875 10.75 -11 10 C-11 9.34 -11 8.68 -11 8 C-10.37351562 7.84144531 -9.74703125 7.68289063 -9.1015625 7.51953125 C-3.84375314 6.2094023 -3.84375314 6.2094023 -0.4375 2.3125 C-0.293125 1.549375 -0.14875 0.78625 0 0 Z " fill="#797678" transform="translate(661,254)"/>
<path d="M0 0 C2.64 0 5.28 0 8 0 C7.01 0.495 7.01 0.495 6 1 C5.65846063 2.66500443 5.32550502 4.33178677 5 6 C4.34 6.66 3.68 7.32 3 8 C2.01 8 1.02 8 0 8 C0 5.36 0 2.72 0 0 Z " fill="#090909" transform="translate(655,253)"/>
<path d="M0 0 C0.66 0 1.32 0 2 0 C2 1.32 2 2.64 2 4 C4.97 4 7.94 4 11 4 C11 3.34 11 2.68 11 2 C11.99 2 12.98 2 14 2 C13.34 3.32 12.68 4.64 12 6 C8.04 6 4.08 6 0 6 C0 4.02 0 2.04 0 0 Z " fill="#848184" transform="translate(594,258)"/>
<path d="M0 0 C4.57864311 1.14466078 6.01564757 2.43535682 9 6 C9 7.32 9 8.64 9 10 C5.73539027 8.19587357 4.11070205 7.16605307 2 4 C1.67 5.98 1.34 7.96 1 10 C0.67 10 0.34 10 0 10 C0 6.7 0 3.4 0 0 Z " fill="#777376" transform="translate(481,253)"/>
<path d="M0 0 C0.33 0 0.66 0 1 0 C1.33 7.59 1.66 15.18 2 23 C0.35 23.33 -1.3 23.66 -3 24 C-3.33 23.01 -3.66 22.02 -4 21 C-2.68 21 -1.36 21 0 21 C0 14.07 0 7.14 0 0 Z " fill="#7F7B7E" transform="translate(821,241)"/>
<path d="M0 0 C0.66 0 1.32 0 2 0 C2 2.31 2 4.62 2 7 C-0.31 7.66 -2.62 8.32 -5 9 C-3.7580393 5.56072421 -2.44259716 2.74792181 0 0 Z " fill="#090809" transform="translate(698,253)"/>
<path d="M0 0 C3.96 0 7.92 0 12 0 C12 0.99 12 1.98 12 3 C8.04 3 4.08 3 0 3 C0 2.01 0 1.02 0 0 Z " fill="#141313" transform="translate(717,253)"/>
<path d="M0 0 C2.97 0 5.94 0 9 0 C9 1.32 9 2.64 9 4 C6.03 4 3.06 4 0 4 C0 2.68 0 1.36 0 0 Z " fill="#050505" transform="translate(805,252)"/>
<path d="M0 0 C3.96 0 7.92 0 12 0 C12 0.99 12 1.98 12 3 C8.04 3 4.08 3 0 3 C0 2.01 0 1.02 0 0 Z " fill="#181718" transform="translate(717,248)"/>
<path d="M0 0 C2.91280837 1.30574169 4.80294493 2.7074208 7 5 C7.99 5.66 8.98 6.32 10 7 C7.03 7 4.06 7 1 7 C1 5.68 1 4.36 1 3 C0.01 2.67 -0.98 2.34 -2 2 C-1.34 1.34 -0.68 0.68 0 0 Z " fill="#0E0D0E" transform="translate(481,244)"/>
<path d="M0 0 C0.99 0 1.98 0 3 0 C3 1.32 3 2.64 3 4 C4.32 4.33 5.64 4.66 7 5 C5.68 5.33 4.36 5.66 3 6 C3 6.99 3 7.98 3 9 C2.34 9 1.68 9 1 9 C1 8.01 1 7.02 1 6 C0.01 6 -0.98 6 -2 6 C-2 5.34 -2 4.68 -2 4 C-1.34 4 -0.68 4 0 4 C0 2.68 0 1.36 0 0 Z " fill="#7D7A7C" transform="translate(620,237)"/>
<path d="M0 0 C0.99 0 1.98 0 3 0 C3 0.99 3 1.98 3 3 C5.97 3 8.94 3 12 3 C12 3.33 12 3.66 12 4 C1.11 4.495 1.11 4.495 -10 5 C-10 4.34 -10 3.68 -10 3 C-6.7 3 -3.4 3 0 3 C0 2.01 0 1.02 0 0 Z " fill="#837F82" transform="translate(599,236)"/>
<path d="M0 0 C2.97 0 5.94 0 9 0 C9 0.99 9 1.98 9 3 C8.01 3 7.02 3 6 3 C6 7.95 6 12.9 6 18 C5.67 18 5.34 18 5 18 C4.67 12.39 4.34 6.78 4 1 C2.68 0.67 1.36 0.34 0 0 Z " fill="#686568" transform="translate(636,246)"/>
<path d="M0 0 C1.32 0.33 2.64 0.66 4 1 C4 1.66 4 2.32 4 3 C3.34 3 2.68 3 2 3 C2 6.63 2 10.26 2 14 C1.34 14 0.68 14 0 14 C0 9.38 0 4.76 0 0 Z " fill="#8A8689" transform="translate(265,245)"/>
<path d="M0 0 C0.66 0.33 1.32 0.66 2 1 C1.34 4.63 0.68 8.26 0 12 C-0.99 11.67 -1.98 11.34 -3 11 C-2.69078116 9.54096742 -2.37751201 8.08279278 -2.0625 6.625 C-1.88847656 5.81289063 -1.71445312 5.00078125 -1.53515625 4.1640625 C-1 2 -1 2 0 0 Z " fill="#7E7B7E" transform="translate(468,252)"/>
<path d="M0 0 C0.99 0.33 1.98 0.66 3 1 C-0.12621626 4.39417765 -2.56541027 6.6062718 -7 8 C-7 7.01 -7 6.02 -7 5 C-4.0625 2.875 -4.0625 2.875 -1 1 C-0.67 0.67 -0.34 0.34 0 0 Z " fill="#100F10" transform="translate(692,253)"/>
<path d="M0 0 C1.9375 0.6875 1.9375 0.6875 4 2 C4.33 3.65 4.66 5.3 5 7 C1.04 7 -2.92 7 -7 7 C-7 6.67 -7 6.34 -7 6 C-4.03 6 -1.06 6 2 6 C1.34 5.01 0.68 4.02 0 3 C0 2.01 0 1.02 0 0 Z " fill="#868285" transform="translate(158,245)"/>
<path d="M0 0 C1.9375 0.6875 1.9375 0.6875 4 2 C4.33 3.65 4.66 5.3 5 7 C1.37 7 -2.26 7 -6 7 C-6 6.67 -6 6.34 -6 6 C-3.36 6 -0.72 6 2 6 C1.34 5.01 0.68 4.02 0 3 C0 2.01 0 1.02 0 0 Z " fill="#848083" transform="translate(89,245)"/>
<path d="M0 0 C0.66 0 1.32 0 2 0 C2 0.66 2 1.32 2 2 C4.64 2 7.28 2 10 2 C10 2.66 10 3.32 10 4 C7.36 4 4.72 4 2 4 C1.67 4.66 1.34 5.32 1 6 C0.01 5.01 -0.98 4.02 -2 3 C-1.34 2.01 -0.68 1.02 0 0 Z " fill="#898588" transform="translate(573,237)"/>
<path d="M0 0 C0.33 0.66 0.66 1.32 1 2 C3.97 2 6.94 2 10 2 C9.67 2.66 9.34 3.32 9 4 C6.49609375 4.4140625 6.49609375 4.4140625 3.4375 4.625 C2.42558594 4.69976562 1.41367187 4.77453125 0.37109375 4.8515625 C-0.41136719 4.90054687 -1.19382812 4.94953125 -2 5 C-2.33 4.01 -2.66 3.02 -3 2 C-2.01 1.34 -1.02 0.68 0 0 Z " fill="#827F82" transform="translate(775,258)"/>
<path d="M0 0 C1.46015291 0.28241641 2.91809793 0.57626614 4.375 0.875 C5.18710937 1.03742188 5.99921875 1.19984375 6.8359375 1.3671875 C9 2 9 2 11 4 C10.67 4.66 10.34 5.32 10 6 C6.51329166 4.8905928 3.22515763 3.73662334 0 2 C0 1.34 0 0.68 0 0 Z " fill="#7D797C" transform="translate(663,259)"/>
<path d="M0 0 C0.66 0 1.32 0 2 0 C2.66 2.64 3.32 5.28 4 8 C2.02 8.99 2.02 8.99 0 10 C0 6.7 0 3.4 0 0 Z " fill="#0A0A0A" transform="translate(753,250)"/>
<path d="M0 0 C0.66 0 1.32 0 2 0 C2 2.64 2 5.28 2 8 C-1.63 8 -5.26 8 -9 8 C-9 7.67 -9 7.34 -9 7 C-6.03 7 -3.06 7 0 7 C-0.33 5.68 -0.66 4.36 -1 3 C-0.67 2.01 -0.34 1.02 0 0 Z " fill="#8B878A" transform="translate(577,243)"/>
<path d="M0 0 C0 0.66 0 1.32 0 2 C-2.31 2.66 -4.62 3.32 -7 4 C-7.33 5.98 -7.66 7.96 -8 10 C-8.33 10 -8.66 10 -9 10 C-9 7.36 -9 4.72 -9 2 C-3.375 0 -3.375 0 0 0 Z " fill="#7F7C7F" transform="translate(660,237)"/>
<path d="M0 0 C2.97 0.495 2.97 0.495 6 1 C5.01 1.495 5.01 1.495 4 2 C4 2.99 4 3.98 4 5 C2.68 5.33 1.36 5.66 0 6 C0 4.02 0 2.04 0 0 Z " fill="#0C0C0C" transform="translate(653,240)"/>
<path d="M0 0 C0.66 0 1.32 0 2 0 C2 2.64 2 5.28 2 8 C0.68 8.33 -0.64 8.66 -2 9 C-2.33 8.01 -2.66 7.02 -3 6 C-2.01 6 -1.02 6 0 6 C0 4.02 0 2.04 0 0 Z " fill="#817E80" transform="translate(568,256)"/>
<path d="M0 0 C0.6875 1.625 0.6875 1.625 1 4 C-0.4375 7.25 -0.4375 7.25 -2 10 C-2.99 9.34 -3.98 8.68 -5 8 C-4.54625 7.4225 -4.0925 6.845 -3.625 6.25 C-2.15886484 4.2199667 -1.05142216 2.26460157 0 0 Z " fill="#807D80" transform="translate(634,255)"/>
<path d="M0 0 C1.98 0 3.96 0 6 0 C6.33 0.99 6.66 1.98 7 3 C5.02 3.99 3.04 4.98 1 6 C1 5.01 1 4.02 1 3 C1.66 2.67 2.32 2.34 3 2 C2.01 1.34 1.02 0.68 0 0 Z " fill="#6B686B" transform="translate(557,254)"/>
<path d="M0 0 C2.31 0 4.62 0 7 0 C7 0.99 7 1.98 7 3 C4.69 3 2.38 3 0 3 C0 2.01 0 1.02 0 0 Z " fill="#050405" transform="translate(753,245)"/>
<path d="M0 0 C2.31 0 4.62 0 7 0 C7 0.99 7 1.98 7 3 C4.69 3 2.38 3 0 3 C0 2.01 0 1.02 0 0 Z " fill="#000000" transform="translate(753,240)"/>
<path d="M0 0 C0.99 0 1.98 0 3 0 C2.39816251 2.02045442 1.72693904 4.02111039 1 6 C0.01 6.495 0.01 6.495 -1 7 C-1.66 6.34 -2.32 5.68 -3 5 C-1.6875 2.5 -1.6875 2.5 0 0 Z " fill="#7D7A7D" transform="translate(506,258)"/>
<path d="M0 0 C0.99 0.66 1.98 1.32 3 2 C3 2.66 3 3.32 3 4 C0.36 4 -2.28 4 -5 4 C-3.36587557 2.29159719 -2.13093906 1.06546953 0 0 Z " fill="#050505" transform="translate(658,246)"/>
<path d="M0 0 C2.625 -0.1875 2.625 -0.1875 5 0 C5.33 0.99 5.66 1.98 6 3 C3.36 3 0.72 3 -2 3 C-1.34 2.01 -0.68 1.02 0 0 Z " fill="#030303" transform="translate(153,247)"/>
<path d="M0 0 C2.625 -0.1875 2.625 -0.1875 5 0 C5.33 0.99 5.66 1.98 6 3 C3.36 3 0.72 3 -2 3 C-1.34 2.01 -0.68 1.02 0 0 Z " fill="#030303" transform="translate(84,247)"/>
<path d="M0 0 C1.7074998 1.28062485 3.37373596 2.61767557 5 4 C5 4.66 5 5.32 5 6 C3.125 5.75 3.125 5.75 1 5 C-0.25 2.9375 -0.25 2.9375 -1 1 C-0.67 0.67 -0.34 0.34 0 0 Z " fill="#767275" transform="translate(484,242)"/>
<path d="M0 0 C1.98 0 3.96 0 6 0 C6 0.99 6 1.98 6 3 C3.69 3 1.38 3 -1 3 C-0.67 2.01 -0.34 1.02 0 0 Z " fill="#1A191A" transform="translate(597,241)"/>
<path d="M0 0 C-4.625 4 -4.625 4 -8 4 C-7 1 -7 1 -5.125 -0.25 C-3 -1 -3 -1 0 0 Z " fill="#787577" transform="translate(689,256)"/>
<path d="M0 0 C0.625 1.8125 0.625 1.8125 1 4 C0.01 5.485 0.01 5.485 -1 7 C-1.99 6.67 -2.98 6.34 -4 6 C-3.34 6 -2.68 6 -2 6 C-2.66 4.68 -3.32 3.36 -4 2 C-2.68 2 -1.36 2 0 2 C0 1.34 0 0.68 0 0 Z " fill="#1D1C1D" transform="translate(632,255)"/>
<path d="M0 0 C0.66 0 1.32 0 2 0 C2.66 1.65 3.32 3.3 4 5 C2.35 5 0.7 5 -1 5 C-0.67 3.35 -0.34 1.7 0 0 Z " fill="#111111" transform="translate(597,257)"/>
<path d="M0 0 C0.66 0.33 1.32 0.66 2 1 C1.67 2.65 1.34 4.3 1 6 C0.01 6.33 -0.98 6.66 -2 7 C-2.33 6.01 -2.66 5.02 -3 4 C-2.34 3.67 -1.68 3.34 -1 3 C-0.67 2.01 -0.34 1.02 0 0 Z " fill="#807D80" transform="translate(746,252)"/>
<path d="M0 0 C1.98 0 3.96 0 6 0 C6 0.99 6 1.98 6 3 C4.02 3 2.04 3 0 3 C0 2.01 0 1.02 0 0 Z " fill="#2C2B2C" transform="translate(622,247)"/>
<path d="M0 0 C0.99 0.33 1.98 0.66 3 1 C1.35 2.98 -0.3 4.96 -2 7 C-2.66 6.34 -3.32 5.68 -4 5 C-2.68 3.35 -1.36 1.7 0 0 Z " fill="#7C787B" transform="translate(477,242)"/>
</svg>
